<?xml version="1.0" encoding="utf-8"?>
<!-- Generator: Adobe Illustrator 23.0.1, SVG Export Plug-In . SVG Version: 6.00 Build 0)  -->
<svg version="1.1" id="Layer_1" xmlns="http://www.w3.org/2000/svg" xmlns:xlink="http://www.w3.org/1999/xlink" x="0px" y="0px"
	 viewBox="0 0 894 1197" style="enable-background:new 0 0 894 1197;" xml:space="preserve">
<style type="text/css">
	.st0{opacity:0.45;}
	.st1{fill:#1A1A1A;}
	.st2{fill:none;stroke:#1A1A1A;stroke-miterlimit:10;}
</style>
<g>
	<ellipse cx="448.4" cy="1076.46" rx="41.36" ry="0.26"/>
	<path d="M2.72,1059.24c3.49,3.21,6.98,6.42,10.47,9.63c0.24-0.26,0.49-0.51,0.73-0.77c-3.44-3.17-6.89-6.34-10.33-9.51
		C3.3,1058.81,3.01,1059.02,2.72,1059.24z"/>
	<path d="M882.9,1068.02c0.32,0.32,0.63,0.65,0.95,0.97c3.1-2.96,6.2-5.92,9.3-8.87c-0.12-0.13-0.23-0.26-0.35-0.38
		C889.51,1062.5,886.2,1065.26,882.9,1068.02z"/>
	<path d="M733.98,956.41c-84.09,67.65-180.15,102.16-288.32,101.54c-107.98-0.62-203.57-36.29-286.63-104.67
		C75.66,884.64,24.8,795.89,1.8,690.66c-1.69,13.61-0.66,26.75,2.89,39.52c6.64,23.88,15.51,46.94,26.93,68.98
		c6.47,12.48,12.39,25.3,19.7,37.27c16.09,26.31,34.26,51.23,55.49,73.63c13.22,13.95,27.5,26.91,41.72,39.87
		c17.46,15.91,37.13,28.87,57.09,41.41c28.9,18.15,59.64,32.49,91.84,43.43c17.51,5.95,35.77,9.72,53.74,14.3
		c22.61,5.76,45.76,8.9,68.94,9.62c27.94,0.88,55.98,1.44,83.91-2.5c19.91-2.81,39.57-6.41,59.15-10.98
		c28.71-6.7,56.05-16.96,82.74-29.2c25.77-11.82,50.04-26.32,73.05-42.76c14.11-10.09,27.95-20.81,40.57-32.69
		c15.93-14.99,31.23-30.81,45.44-47.43c16.33-19.11,30.81-39.72,43.31-61.67c13.67-24,25.76-48.68,35.4-74.6
		c7.33-19.7,13.02-39.54,10.48-61.03C869.77,800.64,818.16,888.68,733.98,956.41z"/>
	<path d="M308.63,1055.01c-36.14-10.62-70.02-26.71-102.43-45.93c-28.44-16.87-54.66-36.69-78.72-59.28
		c-11.13-10.45-21.96-21.35-31.85-32.96c-12.74-14.94-25.38-30.14-36.28-46.42c-12.77-19.08-24.41-39.05-35.05-59.41
		c-7.73-14.8-13.01-30.87-19.49-46.34c-0.73-1.75-2.11-3.23-3.18-4.83c-0.6,4.33-0.7,8.35-0.01,12.22
		c2.44,13.68,9.07,25.79,15.08,38.04c11.37,23.2,24.88,45.11,39.83,66.24c14.1,19.92,29.9,38.35,46.58,56.03
		c9.07,9.61,18.89,18.62,29.06,27.06c13.97,11.6,28.15,23.04,43.03,33.43c26.02,18.17,53.71,33.56,83.07,45.75
		c24.83,10.3,50.16,19.24,76.37,25.3c15.24,3.52,30.66,6.29,46.07,8.96c7.56,1.31,15.29,1.62,22.95,2.39
		c0.05-0.21,0.09-0.42,0.14-0.63c-10.51-1.54-21.13-2.54-31.49-4.75C350.98,1065.35,329.51,1061.15,308.63,1055.01z"/>
	<path d="M698.53,1007.57c16.26-9.58,31.46-21.04,46.63-32.34c11.69-8.71,23.26-17.79,33.71-27.92c13.04-12.64,25.35-26.13,37.09-40
		c11.29-13.34,21.98-27.27,31.97-41.61c16.17-23.22,29.7-48.03,41.04-73.97c3.99-9.12,7.14-18.64,5.07-29.32
		c-31.82,86.28-83.79,158.05-156.02,214.37c-71.92,56.08-153.82,88.68-244.81,98.12c6.42-0.24,12.76-0.85,19.02-1.91
		c16.39-2.78,32.9-5.12,49.09-8.81c26.85-6.12,53.07-14.63,78.09-26.12C659.54,1028.78,679.45,1018.8,698.53,1007.57z"/>
	<path d="M1.14,807.5c0.02,4.52,0.11,8.9,1.66,12.69C6,828,9.26,835.96,13.78,843.03c12.03,18.82,24.25,37.56,37.34,55.64
		c9.6,13.26,20.1,25.99,31.3,37.93c11.77,12.54,24.66,24.07,37.42,35.64c16.02,14.53,32.99,27.92,51.39,39.36
		c13.98,8.68,27.81,17.71,42.33,25.4c24.5,12.98,50.04,23.78,76.25,32.88c6.23,2.17,12.69,3.68,19.05,5.5
		C168.13,1029.67,66.24,940.02,1.14,807.5z"/>
	<path d="M735.9,1004.25c17.35-11.97,34.18-24.92,49.87-38.98c14.41-12.91,27.67-27.27,40.18-42.06
		c13.71-16.21,26.51-33.28,38.72-50.67c8.97-12.78,16.63-26.52,24.36-40.12c3.86-6.79,7.12-14.09,5.54-23.93
		c-65.06,132.64-166.68,221.61-306.9,266.28c1.44,0,2.75,0.28,3.88-0.05c5.15-1.5,10.41-2.79,15.34-4.84
		c24.07-10,48.63-19.05,71.88-30.7C698.67,1029.21,717.54,1016.92,735.9,1004.25z"/>
	<path d="M2.08,848.26c-1.28,5.81,1.22,13.3,6.01,20.31c8.66,12.66,16.95,25.6,26.18,37.83c10.08,13.35,20.55,26.47,31.78,38.86
		c9.96,10.98,20.84,21.2,31.94,31.04c13.39,11.86,27.17,23.32,41.26,34.34c30,23.46,63.21,41.62,97.6,57.71
		c3.94,1.84,8.12,3.18,12.19,4.76c0.18-0.37,0.35-0.74,0.53-1.11c-52.54-22.13-99.87-52.47-141.79-90.89
		C65.66,942.48,30.02,898.47,2.08,848.26z"/>
	<path d="M790.92,984.28c12.4-10.61,23.74-22.48,35.26-34.08c6.63-6.67,13.26-13.47,18.87-20.98
		c15.06-20.14,29.62-40.65,44.25-61.12c4.39-6.14,6.03-12.85,4.68-18.83c-58.4,101.46-139.63,176.54-246.65,222.96
		c0.38,0.5,0.76,1,1.13,1.5c12.41-6.01,24.93-11.82,37.22-18.08c20.81-10.61,41.16-22.09,59.95-36.03
		C761.02,1008.22,776.39,996.72,790.92,984.28z"/>
	<path d="M1.56,883.98c-0.41,2.17-0.39,4.05,0.41,5.51c2.82,5.1,5.6,10.28,8.95,15.03c17.01,24.17,34.98,47.55,56.79,67.72
		c11.18,10.34,21.86,21.26,33.42,31.17c11.42,9.78,23.31,19.1,35.61,27.73c13.87,9.73,28.33,18.66,42.75,27.57
		c7.97,4.92,16.4,9.09,24.63,13.6c0.27-0.48,0.54-0.96,0.82-1.43c-41.83-21.08-79.25-48.45-113.48-80.1
		C57.11,959.02,27.58,923.03,1.56,883.98z"/>
	<path d="M809.11,992.04c13.46-11.71,25.55-25.02,38.06-37.81c4.47-4.57,8.59-9.54,12.52-14.61c9.41-12.14,18.52-24.51,27.91-36.67
		c5.43-7.04,7.71-12.35,6.63-18.56c-51.95,79.73-118.38,142.72-201.73,187.62c1.25-0.56,2.57-1,3.73-1.7
		c20.11-12.09,40.83-23.3,60.12-36.6C774.76,1021.02,792.2,1006.74,809.11,992.04z"/>
	<path d="M2.22,915.8c-0.61,0.4-1.22,0.79-1.82,1.19c1.19,2.82,1.86,6.04,3.65,8.39c9.74,12.74,19.16,25.8,29.85,37.72
		c11.76,13.11,24.4,25.49,37.35,37.44c13.34,12.31,27.42,23.82,41.37,35.46c4.15,3.46,8.92,6.18,13.4,9.24
		c0.42-0.5,0.83-1,1.25-1.51C78.4,1008.12,37.15,965.05,2.22,915.8z"/>
	<path d="M871.35,953c6.97-7.81,13.31-16.2,19.57-24.6c2.07-2.78,3.03-6.4,4.5-9.63c-0.67-0.42-1.33-0.83-2-1.25
		c-34.46,48.79-75.63,91.01-123.81,126.37c0.43,0.4,0.86,0.8,1.29,1.2c1.23-0.72,2.58-1.29,3.67-2.18
		c19.31-15.92,39.22-31.18,57.65-48.06C846.26,981.99,858.62,967.25,871.35,953z"/>
	<path d="M1.2,947.53c2.52,15.67,76.62,88.92,112.71,110.94c-17.92-16.08-38.56-33.33-57.68-52.11
		C37.12,987.58,19.53,967.25,1.2,947.53z"/>
	<path d="M875.64,975.78c4.66-4.87,9.1-9.99,13.23-15.31c2.7-3.47,4.68-7.5,6.99-11.28c-0.38-0.11-0.77-0.21-1.15-0.32
		c-18.24,19.55-35.83,39.75-54.91,58.45c-18.8,18.43-39.09,35.33-58.25,52.47c-0.57,0-0.15,0.13,0.04-0.02
		c18.62-14.88,37.78-29.16,55.64-44.9C850.9,1002.82,863,988.98,875.64,975.78z"/>
	<path d="M1.18,975.93c4.42,17.77,87.01,89.7,99.26,94.62c-15.68-13.7-33.63-28.35-50.37-44.28
		C33.27,1010.28,17.67,993.02,1.18,975.93z"/>
	<path d="M794.61,1071.77c37.02-27.49,72.9-56.2,100.19-94.05C863.73,1011.54,831.21,1043.83,794.61,1071.77z"/>
	<path d="M49.81,1052.31c-16.37-16.08-32.75-32.15-48.87-47.99C13.65,1023.52,32.03,1037.62,49.81,1052.31z"/>
	<path d="M850.59,1050.35c13.2-11.41,29.75-24.87,43.28-42.6C878.22,1023.16,863.04,1038.1,850.59,1050.35z"/>
	<path d="M133.94,1051.15c11.05,7.07,22.1,14.15,33.15,21.22c0.23-0.37,0.46-0.73,0.69-1.1c-11.01-7.07-22.02-14.15-33.04-21.23
		C134.48,1050.41,134.21,1050.78,133.94,1051.15z"/>
	<path d="M729.17,1071.32c0.3,0.35,0.6,0.69,0.9,1.04c10.96-7.07,21.92-14.14,32.88-21.21c-0.24-0.37-0.48-0.73-0.72-1.1
		C751.2,1057.13,740.18,1064.22,729.17,1071.32z"/>
	<path d="M50.63,1054.46c8.15,6.62,16.3,13.24,24.45,19.86c0.27-0.34,0.55-0.68,0.82-1.02c-8.1-6.71-16.19-13.42-24.29-20.13
		C51.28,1053.61,50.95,1054.03,50.63,1054.46z"/>
	<path d="M821.22,1073.22c0.29,0.35,0.57,0.69,0.86,1.04c8.1-6.61,16.21-13.22,24.31-19.84c-0.34-0.41-0.67-0.81-1.01-1.22
		C837.33,1059.88,829.27,1066.55,821.22,1073.22z"/>
	<path d="M2.19,1033.74c4.6,4.45,9.21,8.91,13.81,13.36c0.41-0.41,0.82-0.82,1.23-1.23c-4.35-4.73-8.69-9.47-13.04-14.2
		C3.53,1032.36,2.86,1033.05,2.19,1033.74z"/>
	<path d="M879.84,1045.8c0.46,0.52,0.92,1.03,1.38,1.55c4.31-4.44,8.61-8.89,12.92-13.33c-0.6-0.58-1.2-1.16-1.8-1.74
		C888.17,1036.79,884,1041.29,879.84,1045.8z"/>
	<path d="M20.66,1051.26c3.82,3.59,7.64,7.18,11.46,10.77c0.4-0.43,0.81-0.86,1.21-1.29c-3.82-3.59-7.64-7.18-11.46-10.77
		C21.47,1050.4,21.07,1050.83,20.66,1051.26z"/>
	<path d="M863.67,1060.75c0.58,0.61,1.16,1.23,1.73,1.84c3.31-4.15,6.63-8.3,9.94-12.45c-0.08-0.08-0.16-0.16-0.25-0.25
		C871.29,1053.51,867.48,1057.13,863.67,1060.75z"/>
	<path d="M0.01,446.69c8.77,1.06,5.16-7.68,10.44-9.53c-8.58,25.73-10.1,51.78-8.47,78.29c7.72-26.28,14.65-52.76,26.11-77.68
		c0.45,0.09,0.9,0.18,1.36,0.27c-0.81,2.41-1.76,4.78-2.4,7.23c-5.07,19.52-10.5,38.95-14.96,58.6
		c-3.07,13.51-5.51,27.25-6.88,41.02c-1.53,15.45-1.78,31.04-2.12,46.59c-0.19,8.59,0.48,17.2,0.93,25.8
		c0.56,10.54,0.86,21.12,2.07,31.59c1.59,13.8,3.19,27.67,6.18,41.2c3.4,15.38,7.88,30.56,12.74,45.55
		c7.09,21.85,15.25,43.34,26.57,63.44c8.4,14.92,16.59,29.99,25.75,44.45c13.19,20.82,28.98,39.75,45.66,57.85
		c16.49,17.9,34.51,34.27,53.93,48.93c28.74,21.7,59.32,40.48,92.59,54.48c26.43,11.12,53.47,20.31,81.6,26.51
		c24.38,5.38,48.95,9.36,73.76,10.44c24.94,1.09,50.04,1.36,74.88-2.71c16.43-2.69,33.05-4.58,49.26-8.25
		c32.97-7.46,64.73-18.82,95.14-33.53c22.94-11.09,44.99-23.95,65.33-39.38c14.49-10.99,29.06-22.08,42.28-34.52
		c13.95-13.13,26.85-27.47,39.24-42.11c11.29-13.34,22.49-27.04,31.53-41.93c12.5-20.58,23.82-42.01,34.05-63.82
		c13.36-28.51,22.16-58.63,28.72-89.52c4.98-23.47,7.09-47.09,7.56-70.89c0.35-18.09-0.13-36.22-0.99-54.29
		c-0.66-13.76-2.13-27.51-3.92-41.17c-2.93-22.34-8.72-44.06-15.42-65.54c-1.68-5.37-3.28-10.77-4.91-16.15
		c12.21,22.98,18.39,48.11,26.51,72.56c1.58-24.81-0.15-49.12-7.63-74.17c6.11,7.4,6.11,7.4,8.27,7.07c0.07-0.32,0.18-0.64,0.2-0.96
		c0.54-11.26-0.73-22.32-2.64-33.42c-0.68-3.97-0.64-8.21,1.87-12.92c2.52-4.74,0.43-11.94,0.32-18.07
		c-0.14-7.31-5.61-14.69,0.34-21.97c0.5-0.61,0.24-1.95,0.14-2.94c-0.61-6.36-1.65-12.71-1.78-19.08c-0.09-4.29,1.57-8.6,1.59-12.9
		c0.03-6.57-0.7-13.14-1.08-19.71c-0.19-3.27-1.3-6.9-0.27-9.74c2.25-6.22,1.78-12.19,0.73-18.42c-0.65-3.85-0.95-7.83-0.81-11.73
		c0.13-3.53,1.66-7.06,1.52-10.55c-0.34-8.72-2.49-17.42,0.1-26.13c0.14-0.46,0.02-0.99,0.02-1.49c0-9.53,0-19.07,0-28.6
		c0-8.7,0-17.4,0-26.1c0-8.53,0-17.07,0-25.6c0-7.53,0-15.07,0-22.6c0-8.7,0-17.4,0-26.1c0-8.03,0-16.07,0-24.1
		c0-8.7,0.09-17.4-0.05-26.1c-0.05-3.1-0.95-6.2-0.89-9.3c0.17-9.46,0.61-18.92,0.93-28.38c0.06-1.74,0.01-3.48,0.01-4.9
		c-298.42,0-596.05,0-894.31,0c0.45,4.41,1.27,8.63,1.23,12.84c-0.09,9.8-0.7,19.59-0.88,29.39C0.87,52.43,1,61.13,1,69.83
		c0,9.2,0,18.4,0,27.6c0,6.2,0,12.4,0,18.6c0,10.7,0,21.4,0,32.1c0,6.2-0.12,12.41,0.04,18.6c0.11,4.27,0.71,8.53,0.89,12.81
		c0.12,2.98-0.06,5.97-0.19,8.96c-0.2,4.78-0.63,9.56-0.63,14.34c0,3.31,1.16,6.7,0.77,9.93c-0.93,7.72-1.88,15.33,1.03,22.87
		c0.36,0.93-0.36,2.22-0.4,3.35c-0.25,7.16-0.53,14.31-0.62,21.47c-0.04,3.21,0.65,6.43,0.52,9.62c-0.28,6.57-2.6,13.62-0.89,19.55
		c1.84,6.38,0.63,11.76-0.09,17.68c-0.58,4.76-1.65,10.14-0.06,14.31c2.42,6.36,1.5,12.19,0.56,18.3
		c-1.09,7.13-2.49,14.2,1.43,21.06c0.81,1.42,0.66,3.55,0.5,5.31c-0.88,9.8-1.91,19.58-2.83,29.37c-0.09,0.96-0.16,2.46,0.38,2.86
		c5.11,3.73,2.43,8.82,2.11,13.19C2.68,423.33,1.23,434.9,0.01,446.69z M428.85,437.67c68.77-0.03,109.95,17.85,143.05,53.83
		c29.4,31.95,43.59,70.46,42.74,113.34c-0.93,47.14-19.66,87.51-54.63,119.53c-34.71,31.77-76.25,45.29-122.88,42.54
		c-82.8-4.89-156.84-73.66-154.68-170.31C284.32,512.28,353.27,436.4,428.85,437.67z M369.04,437.3c0.28,0.44,0.57,0.88,0.85,1.31
		c-53.24,29.63-86.75,73.99-95.51,134.33c-7.28,50.21,5.07,96.56,37.52,136.35c71.22,87.31,199.06,84.65,268.1,5.98
		c38.18-43.51,51.74-94.71,40.84-151.44c-10.86-56.52-43.94-97.33-93.39-125.67c20.56,8.35,38.51,20.85,53.64,36.72
		c35.57,37.32,53.45,82.5,51.51,133.8c-1.91,50.27-21.81,93.92-59.2,128.14c-39.79,36.42-87.5,52.59-141.15,47.99
		c-89.53-7.68-159.43-78.37-167.25-167.85c-3.11-35.58,4.68-68.88,20.85-100.47c13.45-26.28,33.05-47.19,56.82-64.2
		C350.85,446.44,360.22,442.25,369.04,437.3z M329.48,443.02c-21.58,17.36-38.66,38.36-51.9,62.7c-11.05,20.3-17.79,42-21.32,64.59
		c-2.44,15.58-1.65,31.42-0.45,47.23c1.24,16.3,4.86,32,10.36,47.18c7.51,20.7,18.65,39.42,32.52,56.67
		c12.73,15.83,27.59,29.22,44.53,40.02c21.88,13.95,45.63,23.39,71.5,27.88c16.5,2.86,32.99,3.48,49.41,2.42
		c18.54-1.21,36.69-5.4,54.16-12.3c17.76-7.01,34.31-16.09,49.31-27.77c20.04-15.6,36.22-34.68,48.95-56.69
		c8.87-15.34,15.59-31.51,19.83-48.73c3.66-14.89,5.36-29.94,5.78-45.3c0.62-22.69-2.9-44.53-10.09-65.95
		c-7.73-23.01-19.68-43.55-34.86-62.46c-9.52-11.86-20.44-22.05-32.42-31.25c-1.32-1.01-2.56-2.13-3.84-3.2
		c0.35-0.42,0.7-0.84,1.05-1.26c21.85,14.16,40.2,32.24,54.62,53.78c24.16,36.07,36.2,76.48,34,119.73
		c-2.89,56.8-25.85,105.15-68.7,143.11c-32.66,28.93-71.31,46.05-114.61,49.28c-115.2,8.6-196.14-68.11-216.13-156.75
		c-21.01-93.16,28.37-175.31,84.63-208.17C333.71,439.53,331.62,441.3,329.48,443.02z M303.82,438.73c0.44-0.34,1.03-0.49,1.55-0.73
		c-42.11,41.84-66.88,92.11-68.82,151.27c-2.16,66.01,21.1,123.47,71.05,167.36c87.07,76.51,207.56,67.37,283.6-1.43
		c22.33-20.21,39.59-44.42,51.58-72c11.94-27.46,17.24-56.33,17.47-86.47c0.23-30.15-6.34-58.6-18.07-85.87
		c-11.85-27.55-29.49-51.39-50.54-72.97c1.79,1.2,3.77,2.2,5.34,3.64c20.73,19.03,37.85,40.81,49.98,66.32
		c8.72,18.34,15.45,37.36,18,57.6c1.71,13.51,3.8,27.11,3.79,40.66c-0.01,19.34-3.38,38.44-8.83,57.06
		c-6.13,20.94-14.92,40.75-27.03,58.9c-10.61,15.9-22.29,31.04-37.48,42.97c-10.8,8.48-21.37,17.42-32.94,24.72
		c-21.1,13.31-44.15,22.08-68.66,27.41c-21.63,4.7-43.45,4.54-65.19,3.57c-22.1-0.99-43.42-6.88-63.9-15.44
		c-20.16-8.43-39.02-19.25-55.83-33.16c-15.65-12.95-29.45-27.8-41.05-44.67c-12.02-17.48-21.61-36.1-28.12-56.24
		c-4.76-14.75-8.88-29.7-9.76-45.33c-0.55-9.87-2.42-19.81-1.75-29.59c1.89-27.79,6.75-54.98,18.38-80.71
		c6.97-15.43,15.06-30.06,25.39-43.43C281.44,459.93,291.46,448.21,303.82,438.73z M279.09,437.8c0.34,0.27,0.67,0.54,1.01,0.82
		c-44.29,51.09-66,110.04-60.77,177.75c4.44,57.42,27.66,107.08,68.91,146.81c48.64,46.85,108.06,68.69,175.61,64.53
		c49.18-3.03,93.54-20.73,131.41-52.64c50.59-42.64,78.38-97.38,82.61-163.42c4.22-66.04-17.99-123.21-60.23-173.71
		c0.99,0.72,2.18,1.27,2.93,2.19c8.88,10.74,18.43,21.03,26.4,32.42c18,25.73,29.52,54.38,34.98,85.3
		c2.27,12.87,4.39,25.92,4.83,38.94c0.81,23.9-2.83,47.4-9.39,70.43c-8.46,29.71-22.01,56.88-41.25,81.02
		c-20.08,25.2-43.79,46.27-72.24,61.85c-23.09,12.64-47.51,21.11-73.34,26.03c-19.29,3.67-38.76,5.23-58.16,3.61
		c-21.26-1.78-42.2-6.04-62.55-13.15c-26.05-9.1-49.95-22.01-71.02-39.55c-22.76-18.94-42.35-40.8-56.96-66.98
		c-13.57-24.33-23.58-49.86-27.7-77.36c-2.38-15.9-3.61-32.08-3.9-48.16c-0.18-10.03,1.87-20.21,3.83-30.14
		c2.44-12.43,5.25-24.84,8.91-36.96c5.98-19.79,15.06-38.32,27.08-55.12c7.91-11.05,17.12-21.16,25.79-31.66
		C276.79,439.57,278.02,438.75,279.09,437.8z M251.56,444.86c-17.87,23.51-30.64,49.66-39.63,77.64
		c-5.14,16.01-8.09,32.51-10.17,49.26c-1.8,14.54-1.34,29.04-0.47,43.39c1.64,27.15,7.89,53.47,18.61,78.66
		c9.74,22.89,22.55,43.79,38.31,63.03c17.92,21.86,39.39,39.39,63.37,54.11c15.38,9.44,31.68,17.05,48.76,22.46
		c13.75,4.36,28.17,6.72,42.37,9.54c18.89,3.75,38.13,2.8,57.06,1.65c15.99-0.97,32.12-4.22,47.54-8.7
		c15.55-4.51,30.67-10.99,45.28-18.05c16.48-7.96,31.88-17.98,45.5-30.44c6.7-6.13,14.03-11.67,20.13-18.33
		c21.15-23.1,38.89-48.56,49.7-78.18c5.28-14.48,9.64-29.34,13.56-44.25c2.11-8.01,2.71-16.47,3.43-24.78
		c0.97-11.17,1.99-22.39,1.88-33.58c-0.09-9.14-1.19-18.38-2.95-27.36c-2.76-14.03-5.63-28.14-9.97-41.74
		c-7.01-21.97-16.78-42.8-29.83-61.96c-4.25-6.24-8.52-12.47-12.78-18.71c50.83,51.81,84.78,151.86,47.67,252.18
		c-13.43,36.31-33.87,68.52-61.86,95.07c-54.46,51.64-119.83,76.54-194.86,71.98c-98.83-6-194.74-70.8-229.24-182.44
		c-28.07-90.84,2.96-186.9,52.75-236.78C254.34,440.64,253.08,442.85,251.56,444.86z M229.12,440.64c0.76-1.1,1.94-1.91,3.76-2.17
		c-3.13,5.17-6.07,10.45-9.41,15.47c-10.95,16.42-18.99,34.28-25.22,52.86c-4.84,14.46-8.77,29.29-11.97,44.2
		c-2.12,9.89-2.69,20.19-3.16,30.35c-0.51,11-0.82,22.1,0.04,33.06c1.57,20.03,3.82,40.07,10.74,59.13
		c5.44,14.98,10.49,30.2,17.38,44.51c8.58,17.82,19.54,34.35,32.62,49.37c20.59,23.64,43.44,44.66,70.71,60.38
		c26.47,15.26,54.85,25.36,84.88,31.39c23.99,4.82,48.17,4.79,72.19,3.45c28.45-1.59,55.86-9.28,82.14-20.58
		c23.6-10.15,45.3-23.33,64.75-40.13c25.37-21.91,47.26-46.68,63.31-76.36c10.84-20.03,19.19-41.07,24.64-63.07
		c3.36-13.58,4.78-27.69,6.37-41.64c1.03-9.02,0.65-18.19,1.16-27.29c1-17.95-2.16-35.41-5.64-52.89
		c-5.1-25.64-14.53-49.69-26.53-72.74c-4.96-9.52-11.24-18.35-16.9-27.5c-0.37-0.6-0.61-1.27-0.92-1.91
		c0.34-0.25,0.68-0.51,1.03-0.76c1.23,1.49,2.5,2.95,3.69,4.47c23.65,30.2,38.97,64.32,47.11,101.64
		c2.54,11.62,3.66,23.57,5.08,35.41c1,8.33,2.35,16.78,1.85,25.08c-0.91,15.2-2.26,30.48-4.94,45.45
		c-2.63,14.68-6.28,29.32-11.02,43.46c-8.66,25.83-20.9,50.03-38.08,71.36c-9.8,12.16-19.63,24.45-30.66,35.45
		c-16.52,16.47-35.51,29.9-55.91,41.37c-16.29,9.16-33.35,16.39-51.12,21.97c-18.4,5.78-37.03,10.75-56.44,11.51
		c-15.59,0.61-31.32,2.07-46.77,0.69c-17.31-1.54-34.54-5.12-51.49-9.16c-18.24-4.35-35.71-11.37-52.38-20.06
		c-18.3-9.54-35.79-20.39-51.25-34.21c-7.64-6.83-15.58-13.39-22.63-20.78c-15.43-16.17-28.61-34.08-39.71-53.52
		c-9.92-17.36-18.23-35.45-23.57-54.68c-4.04-14.56-7.19-29.43-9.65-44.34c-1.92-11.65-3.14-23.59-2.92-35.36
		c0.25-13.92,2.2-27.82,3.74-41.69c1.99-17.91,6.31-35.39,13.18-51.96c6.41-15.46,14.05-30.46,21.95-45.25
		C217.62,456.19,223.68,448.58,229.12,440.64z M207.52,444.01c-10.38,18.15-20.18,36.65-26.38,56.66
		c-5.04,16.28-9.3,32.86-12.88,49.53c-2.12,9.89-2.69,20.19-3.14,30.35c-0.51,11.67-0.82,23.44,0.04,35.07
		c1.44,19.55,4.24,38.94,9.77,57.88c5.45,18.66,11.99,36.88,21.05,54.08c9.3,17.65,19.58,34.76,32.92,49.73
		c9.58,10.75,19.08,21.69,29.62,31.45c20.79,19.25,44.58,34.16,70.22,46.26c22.57,10.65,46.23,17.34,70.65,22.13
		c23.13,4.54,46.45,4.6,69.7,3.58c20.87-0.92,41.28-5.65,61.5-11.34c20.49-5.77,39.37-14.93,57.96-24.76
		c16.66-8.81,32.01-19.76,45.9-32.6c6.94-6.42,13.99-12.75,20.5-19.59c14.75-15.46,27.31-32.55,38.35-50.9
		c10.08-16.75,18.18-34.4,24.08-52.85c5.08-15.91,8.78-32.41,11.36-48.92c2.31-14.76,2.24-29.89,3.27-44.85
		c1.5-21.8-2.35-43.07-7.18-64.08c-4.44-19.35-10.48-38.32-19.55-56.12c-5.92-11.62-12.17-23.07-18.24-34.6
		c-0.42-0.8-0.66-1.71-0.98-2.56c27.58,35.33,43.94,75.61,50.76,119.45c13.12,84.41-7.38,160.77-60.21,227.47
		c-50.1,63.26-116.56,99.77-196.69,108.14c-86.05,8.99-162.87-15.43-227.18-73.78c-66.23-60.08-98.38-136.32-96.23-225.36
		c1.38-57.03,18.87-110,54.64-155.79C209.93,439.8,208.72,441.9,207.52,444.01z M188.09,438.02c0.37,0.21,0.74,0.41,1.11,0.62
		c-2.2,4.4-4.27,8.87-6.61,13.19c-13.63,25.12-22.77,51.92-29.16,79.64c-2.71,11.75-3.75,23.89-5.4,35.87
		c-0.85,6.17-1.97,12.4-1.88,18.59c0.17,11.37,0.95,22.75,1.84,34.1c0.74,9.48,1.68,18.97,3.08,28.38
		c2.82,19.08,8.33,37.48,14.93,55.57c7.87,21.57,18.66,41.68,31.11,60.87c5.94,9.17,12.58,17.99,19.72,26.26
		c8.12,9.41,17.01,18.19,25.82,26.98c15.77,15.72,33.84,28.45,52.92,39.8c21.41,12.74,44.08,22.78,68.11,29.21
		c15.7,4.2,31.73,7.89,47.85,9.61c18.89,2.02,38.08,2.75,57.05,1.97c15.58-0.64,31.16-3.74,46.53-6.8
		c23.59-4.7,46.04-13.09,67.53-23.84c22.6-11.31,43.65-24.94,62.72-41.71c20.56-18.08,39.15-37.95,54.24-60.72
		c21.25-32.08,36.21-67.1,44.21-104.8c2.74-12.93,3.81-26.24,5.13-39.43c0.85-8.55,0.75-17.19,1.09-25.79
		c1.24-30.74-4.57-60.38-13.45-89.65c-5.47-18.03-12.43-35.35-21.11-52.03c-2.59-4.98-5.04-10.03-6.81-15.69
		c0.77,0.86,1.67,1.63,2.3,2.58c12.38,18.52,22.58,38.27,29.42,59.4c5.85,18.07,10.37,36.62,14.38,55.19
		c2.24,10.37,2.41,21.2,3.21,31.85c0.6,7.91,1.6,15.95,0.87,23.78c-1.62,17.43-3.35,34.94-6.67,52.11
		c-3.05,15.76-7.45,31.38-12.69,46.57c-7.04,20.39-16.81,39.62-28.45,57.86c-14.51,22.72-31.31,43.56-51.05,61.91
		c-16.23,15.08-33.67,28.8-53.14,39.4c-16.15,8.79-32.66,17.26-49.82,23.76c-16.96,6.42-34.82,10.6-52.49,14.95
		c-8.53,2.1-17.48,2.87-26.29,3.33c-14.75,0.76-29.53,0.9-44.3,1.08c-17.5,0.22-34.68-2.67-51.66-6.41
		c-27.18-5.99-53.18-15.45-77.79-28.48c-19.54-10.35-38.18-22.16-54.74-36.92c-10.13-9.03-20.56-17.87-29.66-27.88
		c-14.41-15.86-27.23-33.01-38.23-51.54c-12.73-21.46-22.64-44.06-29.93-67.88c-5.21-17.04-9.31-34.33-10.86-52.09
		c-1.36-15.6-3.42-31.32-2.7-46.88c0.84-18.09,3.35-36.26,7.03-54.01c3.35-16.17,8.18-32.23,14.29-47.56
		c6.12-15.36,14.58-29.8,22.17-44.57C183.59,444.33,185.99,441.25,188.09,438.02z M168.81,437.52c-0.35,1.05-0.56,2.18-1.07,3.15
		c-10.09,19.22-18.92,39.03-24.59,59.99c-4.42,16.31-7.94,32.91-11,49.54c-2.13,11.58-3.61,23.41-3.92,35.16
		c-0.32,12.34,0.72,24.76,1.87,37.08c1.18,12.7,2.81,25.39,4.96,37.95c3.53,20.61,9.64,40.61,18.14,59.66
		c7.11,15.94,14.95,31.68,24,46.58c7.94,13.07,17.62,25.16,27.25,37.11c7.46,9.25,15.58,18.09,24.22,26.24
		c17.79,16.79,37.23,31.47,58.5,43.72c19.43,11.2,39.55,20.71,60.99,27.41c18.7,5.85,37.67,10.12,57.08,13.12
		c21.29,3.29,42.66,3.7,63.9,2.45c24.75-1.46,49.17-6.02,73.03-13.49c17.8-5.57,35.15-12.07,51.66-20.66
		c21.66-11.27,41.9-24.64,60.69-40.37c24.46-20.48,45.08-44.18,62.37-70.85c13.18-20.34,24.39-41.75,31.99-64.81
		c5.23-15.89,10.06-31.99,13.76-48.29c2.6-11.44,3.27-23.36,4.28-35.11c1.02-11.83,1.85-23.72,1.93-35.59
		c0.05-8.86-0.76-17.8-2.04-26.58c-1.86-12.74-3.81-25.54-6.98-37.99c-3.96-15.58-8.82-30.97-14.04-46.19
		c-3.32-9.68-7.88-18.94-12.09-28.29c-1.65-3.66-3.86-7.06-5.82-10.58c0.27-0.24,0.54-0.49,0.8-0.73c1.09,1.23,2.4,2.32,3.24,3.7
		c17.38,28.65,29.68,59.44,36.79,92.09c3.26,14.98,4.54,30.42,6.2,45.7c1.15,10.65,2.58,21.47,1.83,32.07
		c-1.3,18.27-3.84,36.48-6.51,54.62c-3.48,23.66-11.49,46.1-20.6,68.05c-4.86,11.71-10.88,23.08-17.61,33.83
		c-9.51,15.2-19.18,30.49-30.58,44.24c-11.31,13.65-24.29,26.07-37.58,37.86c-12.21,10.83-25.23,20.98-38.93,29.83
		c-13.54,8.75-28.11,16.04-42.68,23.01c-21.67,10.37-44.7,16.71-68.14,22c-29.7,6.7-59.76,6.49-89.77,5.55
		c-14.78-0.46-29.65-3.13-44.13-6.35c-15.83-3.52-31.79-7.56-46.75-13.69c-19.42-7.96-38.42-17.29-56.63-27.73
		c-20.36-11.68-38.47-26.64-55.56-42.93c-23.23-22.14-42.26-47.3-58.36-74.95c-11.06-18.98-19.94-38.98-26.43-59.78
		c-5.56-17.8-8.84-36.37-12.34-54.74c-1.9-9.96-2.23-20.22-3.11-30.36c-0.5-5.75-1.4-11.59-0.9-17.29
		c1.63-18.62,3.46-37.24,5.89-55.78c2.66-20.27,8.28-39.94,16.21-58.7c6.82-16.16,15.39-31.59,23.24-47.31
		C166.05,438.93,167.08,437.97,168.81,437.52z M147.05,436.81c0.4,0.29,0.8,0.57,1.2,0.86c-1.96,4.18-3.96,8.33-5.87,12.53
		c-9.83,21.71-17.2,44.32-22.95,67.36c-3.19,12.79-4.54,26.05-6.37,39.15c-1.32,9.42-2.78,18.91-2.86,28.39
		c-0.11,12.03,0.91,24.08,1.81,36.09c0.72,9.65,1.47,19.35,3.11,28.87c2.3,13.31,4.8,26.65,8.39,39.65
		c6.04,21.87,14.37,42.96,24.91,63.08c11.32,21.63,24.45,42.15,40.57,60.54c10.47,11.96,21.22,23.77,32.78,34.66
		c16.47,15.51,35.08,28.36,54.45,40.05c24.02,14.5,49.68,25.43,76.56,33.06c16.71,4.74,34.01,7.49,51.09,10.87
		c21.12,4.19,42.57,3.52,63.88,2.8c13.87-0.47,27.88-2.16,41.43-5.1c18.24-3.97,36.4-8.81,54.06-14.84
		c30.11-10.27,57.81-25.37,83.72-44.01c18.63-13.4,35.4-28.74,50.94-45.41c14.97-16.06,27.71-33.9,39.26-52.63
		c14.58-23.62,25.61-48.75,33.93-75.14c5.64-17.91,10.36-36.05,11.89-54.84c1.23-15.11,2.18-30.25,2.97-45.4
		c0.37-7.01,0.53-14.1-0.04-21.08c-0.92-11.26-2.6-22.46-3.84-33.7c-2.45-22.18-9.12-43.34-16.26-64.29
		c-4.39-12.89-10.54-25.17-15.88-37.74c-0.42-0.98-0.67-2.02-1.01-3.04c0.35-0.17,0.7-0.34,1.04-0.51
		c2.67,4.58,5.68,8.99,7.93,13.76c4.91,10.44,9.59,21.01,14.08,31.64c8.6,20.35,13.58,41.77,17.77,63.34
		c1.9,9.79,2.34,19.88,3.23,29.85c0.82,9.19,1.99,18.4,1.91,27.6c-0.17,19.73-1.38,39.44-5.83,58.77
		c-3.8,16.48-6.94,33.18-11.95,49.29c-9.94,31.97-25.16,61.57-44.28,89.01c-14.17,20.33-30.34,39.1-48.6,55.94
		c-20.42,18.83-42.79,34.96-66.92,48.75c-30.43,17.39-63.14,28.69-97.04,36.71c-11.41,2.7-23.2,4.32-34.91,5.13
		c-18.82,1.29-37.74,2.31-56.58,1.89c-13.69-0.31-27.53-2.15-40.93-5.05c-18.4-4-36.69-8.92-54.59-14.76
		c-33.49-10.92-63.77-28.13-92.03-49.09c-17.46-12.95-33.47-27.52-48.12-43.46c-16.41-17.85-30.75-37.37-43.11-58.31
		c-12.99-22.01-23.33-45.2-31.05-69.52c-6.02-18.96-11.05-38.21-12.93-58.1c-1.5-15.88-3.88-31.81-3.68-47.69
		c0.22-17.35,2.84-34.68,4.66-51.99c2.22-21.03,7.8-41.39,15.25-61c6.51-17.14,15.17-33.47,22.92-50.14
		C145.63,438.61,146.41,437.74,147.05,436.81z M127.85,437.43c-3.16,7.92-6.66,15.73-9.42,23.8c-5.04,14.77-10.29,29.52-14.24,44.59
		c-3.84,14.63-6.53,29.6-9.01,44.53c-1.45,8.74-1.87,17.7-2.1,26.58c-0.34,13.02-0.67,26.1,0.05,39.09
		c1.11,20.11,3.06,40.24,8.38,59.73c4.96,18.19,9.92,36.5,16.77,54.02c10.55,26.96,23.88,52.74,41.83,75.63
		c12.78,16.29,25.78,32.61,40.42,47.18c21.52,21.42,45.85,39.53,72.68,54.15c22.56,12.29,45.57,23.6,70.4,30.34
		c17.57,4.77,35.48,8.42,53.37,11.85c25.76,4.93,51.92,3.63,77.87,2.81c24.52-0.78,48.55-6.01,72.24-12.61
		c25.14-7,48.84-17.41,71.78-29.61c18.35-9.76,35.87-20.88,51.64-34.53c10.59-9.16,21.77-17.76,31.5-27.76
		c22.13-22.75,41.32-47.85,56.81-75.66c15.95-28.65,27.99-58.9,35.58-90.75c3.55-14.89,5.72-30.18,7.41-45.41
		c1.51-13.61,1.26-27.4,2.24-41.08c1.28-17.83-1.69-35.24-3.9-52.81c-3.28-26.06-11.07-50.9-19.35-75.61
		c-3.23-9.64-7.81-18.83-11.78-28.23c0.45-0.23,0.89-0.45,1.34-0.68c3.83,7.52,8.16,14.83,11.39,22.6
		c5.44,13.07,11.1,26.16,14.98,39.72c4.68,16.4,8.48,33.17,11.04,50.03c2.73,18,4.46,36.27,4.99,54.46
		c0.58,20.21-1.34,40.44-5.76,60.26c-4.04,18.09-7.63,36.37-13.19,54.01c-8.91,28.25-22.28,54.51-37.88,79.79
		c-18.32,29.69-41.5,55.07-66.99,78.34c-20.79,18.98-43.96,34.94-69.13,47.96c-18.58,9.61-37.49,18.38-57.39,24.72
		c-20.18,6.43-40.82,10.97-61.81,14.37c-24.2,3.92-48.48,4.71-72.72,3.48c-29.42-1.48-58.52-6.51-86.49-15.96
		c-19.24-6.5-38.21-14.09-56.6-22.69c-24.05-11.24-46.32-25.74-66.29-43.29c-15.19-13.35-30.17-27.11-43.83-41.98
		c-17.51-19.05-31.83-40.61-44.52-63.22c-11.62-20.71-20.91-42.41-28.22-64.95c-5.94-18.31-10.77-36.92-12.95-56.1
		c-1.46-12.88-2.68-25.79-4-38.68c-0.34-3.27-1.16-6.57-0.92-9.8c1.5-20.18,2.88-40.37,4.98-60.49c2.31-22.15,7.87-43.65,16-64.34
		c6-15.28,13.22-30.08,19.95-45.07C125.52,439.04,126.51,438.13,127.85,437.43z M107.24,437.13c0.21,0.12,0.42,0.23,0.63,0.35
		c-3.76,9.79-8.05,19.41-11.16,29.4c-5.27,16.92-10.68,33.88-14.38,51.17c-3.28,15.31-4.36,31.1-6.31,46.69
		c-0.81,6.51-1.98,13.07-1.88,19.6c0.19,12.71,1.07,25.41,1.86,38.1c0.47,7.55,0.84,15.15,2.09,22.58
		c2.63,15.58,5.22,31.21,8.88,46.56c6.99,29.33,18.61,56.96,32.67,83.57c11.03,20.87,24.31,40.29,39.48,58.33
		c9.67,11.5,19.58,22.91,30.4,33.29c20.39,19.55,42.73,36.7,67.08,51.18c26.76,15.92,54.95,28.64,84.9,37.06
		c15.95,4.48,32.31,7.57,48.56,10.96c27.99,5.82,56.43,4.64,84.66,3.74c25.82-0.82,51.22-5.96,76.13-13.12
		c23.08-6.63,45.56-14.99,66.82-26.07c24.51-12.78,48.18-27.05,68.92-45.63c10.33-9.25,20.96-18.21,30.79-27.97
		c14.84-14.72,27.41-31.39,39.47-48.44c11.35-16.05,20.87-33.15,29.22-50.92c7.97-16.97,15.3-34.2,19.93-52.43
		c4.08-16.07,8.5-32.09,11.72-48.33c2.07-10.42,2.43-21.21,3.2-31.86c0.89-12.35,1.7-24.72,1.92-37.1
		c0.13-7.04-0.89-14.12-1.55-21.16c-0.66-7.02-1.23-14.07-2.38-21.02c-2.24-13.51-4-27.18-7.53-40.36
		c-4.57-17.08-10.63-33.76-16.12-50.6c-1.89-5.8-3.99-11.52-5.07-17.76c3.1,6.02,6.59,11.88,9.22,18.1
		c8.11,19.2,15.84,38.6,20.02,59.09c3.36,16.46,6.39,33.04,8.36,49.7c1.87,15.86,3.22,31.94,2.89,47.88
		c-0.34,16.02-2.31,32.11-4.89,47.96c-2.81,17.33-6.45,34.6-10.96,51.57c-6.86,25.78-17.64,50.11-30.28,73.58
		c-11.02,20.46-23.5,40.02-38.67,57.7c-8.81,10.27-17.86,20.35-27.18,30.17c-25.13,26.47-54.39,47.51-86.21,65.21
		c-20.17,11.22-41.26,20.35-63.04,27.76c-21.15,7.19-42.93,11.85-65.01,15.58c-26.84,4.54-53.8,4.42-80.71,3.49
		c-22.2-0.77-44.17-4.91-65.79-10.27c-30.82-7.64-60.41-18.7-88.37-33.7c-21.6-11.59-42.52-24.4-61.09-40.67
		c-8.16-7.14-17.09-13.46-24.75-21.08c-9.82-9.76-19.12-20.13-27.9-30.84c-9.43-11.49-18.66-23.24-26.81-35.65
		c-17.54-26.68-31.58-55.19-42.05-85.44c-7.16-20.69-12.27-41.89-15.78-63.41c-2.29-14.07-3.03-28.41-4.17-42.66
		c-0.66-8.24-1.54-16.6-0.89-24.79c1.44-18.14,3.47-36.25,5.85-54.29c2.72-20.56,7.82-40.66,15.08-60.07
		c5.19-13.87,11.55-27.3,17.47-40.9C105.17,439.57,106.33,438.41,107.24,437.13z M84.92,440.52c0.52-1.23,1.54-2.24,3.13-2.91
		c-2.03,5.76-4.3,11.46-6.05,17.3c-5.45,18.21-11.4,36.31-15.81,54.78c-3.44,14.41-5.07,29.27-7.13,43.98
		c-1.36,9.75-2.8,19.59-2.87,29.39c-0.09,13.36,0.99,26.74,1.79,40.1c0.46,7.71,0.85,15.48,2.11,23.08
		c2.81,16.88,5.29,33.9,9.46,50.47c7.74,30.79,19.33,60.33,35.02,87.91c10.46,18.39,22.2,36.24,35.07,53.02
		c11.76,15.35,24.98,29.83,39.08,43.08c14.66,13.77,30.48,26.55,47,38.03c16.57,11.51,34.08,21.99,52.16,30.93
		c28.83,14.24,59.1,25,91,30.29c16.45,2.73,32.95,5.55,49.55,6.79c18.03,1.34,36.28,2.21,54.26,0.88
		c20.82-1.54,41.58-4.98,62.11-8.9c21.59-4.12,42.49-10.97,62.84-19.52c21.42-9,42.13-19.27,61.58-31.98
		c19.52-12.76,37.74-27.08,55.13-42.74c28.59-25.74,51.88-55.53,71.54-88.3c15.42-25.69,27.38-52.99,36.3-81.63
		c6.21-19.96,11.04-40.17,13.93-60.9c2.6-18.67,4.23-37.36,3.91-56.21c-0.14-8.36,0.59-16.79-0.16-25.09
		c-1.36-15.17-2.64-30.44-5.59-45.35c-3.94-19.92-9.1-39.63-14.44-59.24c-2.55-9.38-6.7-18.32-10.11-27.46
		c-0.32-0.86-0.52-1.77-0.78-2.65c0.43-0.18,0.85-0.36,1.28-0.53c2.86,5.8,6.38,11.38,8.46,17.44c6.49,18.91,13.36,37.77,18.31,57.1
		c4.27,16.7,6.76,33.94,8.82,51.08c1.9,15.86,3.24,31.94,2.9,47.88c-0.36,16.86-2.78,33.7-4.7,50.5
		c-3.15,27.51-10.64,53.97-19.96,79.97c-7.4,20.64-16.43,40.55-27.89,59.22c-10.06,16.39-20.6,32.51-31.61,48.28
		c-5.63,8.06-12.62,15.18-19.24,22.51c-6.22,6.89-12.57,13.69-19.19,20.19c-17.39,17.08-36.44,32.16-56.76,45.57
		c-33.69,22.24-69.84,39.49-108.65,50.55c-17.65,5.03-35.91,8-53.97,11.54c-27.68,5.42-55.77,4.84-83.67,3.73
		c-21.35-0.85-42.55-4.37-63.51-9.28c-27.72-6.5-54.47-15.49-80.2-27.64c-26.21-12.38-50.95-27.15-73.98-44.81
		c-16.82-12.9-32.72-26.83-47.14-42.32c-21.94-23.57-41.3-49.09-57.2-77.19c-15.32-27.08-27.99-55.32-36.24-85.3
		c-4.91-17.86-8.53-36.15-11.63-54.43c-2.3-13.56-3-27.41-4.13-41.16c-0.65-7.91-1.45-15.92-0.9-23.79c1.16-16.7,2.89-33.37,4.86-50
		c2.95-25.03,9.41-49.27,18.05-72.9C75.19,462.57,80.22,451.61,84.92,440.52z M67,437.21c0.44,0.18,0.88,0.36,1.31,0.53
		c-0.66,1.84-1.3,3.69-1.99,5.53c-9.22,24.76-15.98,50.25-21.09,76.1c-2.79,14.11-3.61,28.6-5.22,42.94
		c-0.77,6.85-1.97,13.74-1.87,20.6c0.18,13.38,1.11,26.74,1.79,40.11c0.26,5.1,0.42,10.24,1.11,15.29
		c2.01,14.57,3.68,29.22,6.55,43.63c4.78,23.98,12.18,47.25,21.43,69.91c9.02,22.1,19.55,43.47,32.79,63.35
		c9.22,13.85,18.14,28.11,28.99,40.64c14.28,16.49,30.03,31.74,45.67,47c14.58,14.22,31.01,26.24,48.13,37.25
		c25.9,16.66,53.27,30.3,82.16,41.06c21.9,8.16,44.34,14.27,67.21,18.6c14.14,2.67,28.57,4.27,42.94,5.08
		c18.56,1.05,37.23,1.71,55.78,0.91c15.48-0.67,30.88-3.55,46.29-5.69c22.68-3.15,44.61-9.37,66.13-17.03
		c29-10.33,56.57-23.58,82.62-40.09c18.74-11.88,36.76-24.68,52.72-40.05c14.53-13.99,28.8-28.34,42.29-43.33
		c18.77-20.86,33.85-44.47,47.07-69.16c14.81-27.65,26.7-56.55,34.17-87.1c3.52-14.39,7.17-28.77,9.76-43.34
		c1.92-10.81,2.43-21.88,3.19-32.87c0.9-13.02,1.73-26.06,1.91-39.1c0.11-7.87-1.01-15.75-1.71-23.62
		c-0.61-6.87-1.18-13.75-2.19-20.57c-1.82-12.27-3.39-24.62-6.1-36.7c-3.41-15.22-7.65-30.27-11.92-45.28
		c-1.99-7.02-4.9-13.77-7.33-20.67c-0.4-1.13-0.46-2.38-0.67-3.58c0.43-0.15,0.87-0.3,1.3-0.45c3.05,7.25,6.58,14.34,9.06,21.78
		c5.59,16.81,11.31,33.62,15.74,50.75c3.59,13.85,5.81,28.11,7.83,42.3c1.66,11.71,2.28,23.57,3.08,35.39
		c0.59,8.75,1.47,17.58,0.89,26.29c-1.08,16.2-3.04,32.35-4.79,48.51c-3.29,30.33-11.56,59.47-22.07,87.97
		c-8.83,23.94-19.48,47.12-33.32,68.59c-10.87,16.86-21.97,33.72-34.57,49.28c-11.9,14.7-25.6,28.01-39.05,41.37
		c-17.04,16.92-36.07,31.51-56.31,44.4c-20.82,13.25-42.35,25.17-65.25,34.61c-21.57,8.9-43.43,16.85-66.21,21.91
		c-14,3.11-28.19,5.37-42.34,7.74c-27.16,4.56-54.6,3.59-81.88,2.72c-21.7-0.69-43.2-4.42-64.5-9.29
		c-37.14-8.49-72.44-21.74-105.92-39.69c-20.57-11.03-40.67-23.09-58.54-38.28c-15.33-13.03-30.88-25.93-44.99-40.21
		c-21.71-21.96-39.98-46.82-56.08-73.21c-18.63-30.53-33.27-62.88-42.95-97.3c-4.75-16.9-8.92-34.05-11.82-51.34
		c-2.78-16.64-3.73-33.6-5.18-50.45c-0.71-8.24-1.47-16.58-0.91-24.79c1.15-17.03,2.33-34.15,5.06-50.97
		c3.04-18.78,7.3-37.4,11.99-55.85c3.04-11.94,7.62-23.51,11.91-35.09C61.28,448.4,64.35,442.88,67,437.21z M45.75,440.77
		c0.52-1.31,1.56-2.4,3.25-3.2c-2.66,7.87-5.85,15.61-7.86,23.64c-5.01,20.04-10.35,40.06-13.92,60.38
		c-3.2,18.21-4.55,36.78-6.09,55.25c-0.76,9.14-0.17,18.39-0.12,27.59c0.1,21.43,2.34,42.62,5.76,63.81
		c3.92,24.24,10.05,47.84,18.3,70.85c8.98,25.03,19.84,49.19,33.35,72.27c11.18,19.11,24.17,36.84,37.19,54.6
		c4.07,5.56,8.88,10.62,13.66,15.61c7.77,8.11,15.73,16.04,23.73,23.92c4.72,4.64,9.68,9.04,14.52,13.56
		c16.35,15.27,34.67,27.94,53.47,39.87c25.15,15.96,51.93,28.7,79.83,39.23c23.88,9.02,48.57,14.89,73.5,19.62
		c14.46,2.74,29.24,4.22,43.95,5.07c18.06,1.04,36.23,1.71,54.28,0.9c15.65-0.71,31.23-3.48,46.79-5.74
		c24.73-3.59,48.95-9.6,72.4-18.14c37.58-13.69,72.99-31.65,105.47-55.3c15.99-11.64,31.17-24.08,45.56-37.65
		c21.03-19.83,40.32-41.14,56.15-65.28c11.79-17.99,23.27-36.32,33.13-55.41c16.06-31.07,27.22-64.17,34.68-98.31
		c3.55-16.25,5.46-32.92,7.11-49.5c1.45-14.62,1.63-29.38,2.11-44.09c0.28-8.86,0.65-17.79-0.09-26.59
		c-1.08-12.88-2.84-25.72-4.84-38.49c-2.02-12.88-4.08-25.82-7.25-38.45c-4.5-17.91-10.03-35.55-15.12-53.31
		c0.25-0.12,0.51-0.24,0.76-0.35c2.53,5.75,5.57,11.34,7.49,17.29c5.68,17.63,11.57,35.24,16.13,53.18
		c3.61,14.19,5.84,28.77,7.85,43.3c1.67,12.04,2.26,24.24,3.09,36.39c0.56,8.25,1.35,16.57,0.9,24.79
		c-0.82,14.76-1.85,29.57-3.97,44.19c-2.68,18.55-5.76,37.11-10.07,55.33c-5.4,22.81-13.18,44.92-22.72,66.43
		c-11.42,25.75-24.56,50.53-41.02,73.36c-10.43,14.47-21.65,28.4-33.17,42.02c-8.03,9.49-16.62,18.64-25.92,26.87
		c-14.61,12.94-29.76,25.32-45.18,37.29c-17.58,13.64-36.85,24.76-56.68,34.78c-29.75,15.05-60.58,27.43-93.24,34.58
		c-17.51,3.84-35.14,7.36-52.87,9.87c-12.38,1.75-25.03,1.78-37.58,2.15c-10.99,0.33-22.04,0.66-32.99-0.07
		c-16.53-1.11-33.04-2.87-49.49-4.86c-28.3-3.42-55.5-11.43-82.19-21.09c-11.01-3.99-21.82-8.71-32.3-13.93
		c-15.91-7.93-31.97-15.75-47.01-25.15c-15.75-9.84-30.88-20.87-45.33-32.54c-13.35-10.78-25.61-22.96-38.07-34.81
		c-15.92-15.14-29.49-32.39-41.83-50.42c-11.77-17.2-22.91-34.98-32.6-53.42c-9-17.12-16.95-35.02-23.13-53.34
		c-7.11-21.07-12.51-42.8-17.24-64.55c-3.32-15.3-4.75-31.08-6.13-46.72c-1.31-14.81-2.67-29.79-1.84-44.58
		c1.16-20.59,3.38-41.24,6.92-61.55c3.46-19.83,8.62-39.43,14.05-58.84C36.36,462,41.46,451.49,45.75,440.77z"/>
	<path d="M334.69,708.03c27.64,28.66,61.54,45.12,101.47,47.9c46.84,3.26,87.81-11.03,121.77-43.54
		c29.35-28.09,45.37-62.85,48.02-103.46c3.07-47.16-12.03-88.26-44.77-121.83c-30.51-31.28-67.85-48.66-113.7-47.14
		c-86.22-2.92-151.72,72.02-156.42,144.8C288.02,631.95,301.57,673.7,334.69,708.03z M300.44,597.62
		c1.46-77.31,64.33-143.33,147.93-142.62c82.78-1.16,148.88,65.7,148.33,148.86c-0.26,40.07-15.73,75.24-44.59,103.19
		c-31.6,30.61-70.11,44.88-114.24,41.86C365.02,743.93,298.8,684.38,300.44,597.62z"/>
	<path d="M448.57,738c77.54,2.02,135.85-62.76,139.49-129.55c2.3-42.33-10.83-78.96-40.43-109.1c-24.49-24.94-54.57-39.1-89.7-41.3
		c-40.81-2.55-76.38,10.46-105.82,38.59c-25.64,24.5-40.39,54.82-43.07,90.46C302.34,676.01,375.33,741.04,448.57,738z
		 M318.34,599.12c1.26-68.34,55.91-130.79,137.77-126.83c66.38,3.21,122.85,55.86,122.49,131.06
		c-0.34,69.38-57.14,127.52-129.97,127.64C376.28,731.2,316.99,672.52,318.34,599.12z"/>
	<path d="M448.17,720c68.68,2.19,118.5-54.88,121.97-112.72c4.67-77.81-57.17-126.14-108.8-130.3c-36.81-2.97-69.28,7.13-96.31,32.6
		c-22.55,21.25-35.55,47.49-37.98,78.52C320.9,666.82,384.95,722.83,448.17,720z M336.23,599.39
		c1.12-57.35,47.73-114.06,121.02-109.33c54.94,3.54,103.86,48.81,103.44,113.35c-0.37,57.55-49.87,111.54-112.46,108.59
		C387.09,714.96,335.03,661.03,336.23,599.39z"/>
	<path d="M442.72,702.89c64.63,2.81,106.28-47.69,109.49-97.36c4.12-63.7-50.13-113.03-103.68-110.54
		c-58.15-1.3-100.05,46.95-103.43,93.47C339.91,660,394.27,700.79,442.72,702.89z M458.26,507.97c44.4,3.74,84.83,41.53,84.43,94.57
		c-0.37,48.77-41.21,93.62-94.45,91.46c-52.37,2.07-94.52-42.9-94-93.96C354.72,552.84,393.45,502.51,458.26,507.97z"/>
	<path d="M442.47,684.97c54.48,3.17,89.4-40,91.69-79.81c3.22-56.08-41.36-90.05-80.37-92.25c-51.64-2.91-92.32,39.91-90.79,85.18
		C361.52,647.74,401.8,682.61,442.47,684.97z M452.17,525.07c39.26,1.71,72.06,33.36,72.54,75.46
		c0.47,41.53-34.43,77.51-76.38,75.47c-41.53,1.88-76.29-33.78-76.07-75.32C372.48,559.6,406.07,523.07,452.17,525.07z"/>
	<path d="M444.07,667.2c41.59,2.35,70.26-31.99,72.2-63.38c2.6-42.15-33.66-74.67-67.59-71.82c-37.3-2.29-65.67,30.61-67.82,61.45
		C377.76,637.74,413.7,665.49,444.07,667.2z M451.93,543.11c31.19,1.64,54.33,25.33,54.67,57.04c0.34,31.88-24.32,58.67-58.29,57.85
		c-34.03,0.63-58.34-26.47-57.96-58.23C390.72,569.23,414.79,541.15,451.93,543.11z"/>
	<path d="M444.78,649.21c29.94,2.06,52.1-22.77,53.59-46.62c1.94-31.03-26.13-54.88-49.9-52.59c-25.62-1.95-48.55,22.76-49.77,45.63
		C396.9,629.29,424.51,647.82,444.78,649.21z M408.37,599.78c0.54-20.99,16.8-40.31,42.73-38.92c21.48,1.15,37.24,18.33,37.51,39.13
		c0.27,21.25-16.48,41.01-39.98,40.01C424.08,641.1,407.85,620.19,408.37,599.78z"/>
	<path d="M448.23,631c18.53,2.24,30.95-16.19,32.01-28.47c1.72-19.88-15.83-34.17-30.2-34.86c-19.07-0.91-32.72,16.86-33.38,30.27
		C415.77,616.1,432.09,633.3,448.23,631z M451.18,578.8c10.26,0.75,19.68,10.27,19.43,21.33c-0.29,12.44-9.06,21.83-22.28,21.86
		c-13.91-0.25-22.1-10.69-21.9-22.2C426.61,589.53,433.99,577.54,451.18,578.8z"/>
	<path d="M448.45,613c8.43,0,13.13-4.85,13.67-12.78c0.49-7.35-5.97-14.26-13.57-14.29c-7.65-0.03-14.13,6.94-13.67,14.2
		C435.4,608.16,440.04,613,448.45,613z M448.92,597.2c1.06-0.11,2.3,1.52,4.5,3.15c-2.54,1.26-3.98,2.57-5.29,2.44
		c-1.09-0.1-2.01-1.9-3-2.95C446.38,598.91,447.57,597.35,448.92,597.2z"/>
</g>
</svg>
