<svg xmlns="http://www.w3.org/2000/svg" width="800px" height="800px"><title>Asset 1</title><g id="ac8cd8c5-dc45-429c-9df9-8bec947c8421" data-name="Layer 2"><g id="fbb47595-3dc8-435e-be70-a77de7950d8d" data-name="Layer 1"><path d="M448.71,315.31h0c-.08,0-.46.32-2.12,2.79-1.29,1.94-3.13,4.84-5.47,8.63-4.85,7.85-11.72,19.34-19.88,33.22h0c-17.71,30.11-38.09,65.74-52.34,91.34,14-25,34.31-60.45,51.91-90.31h0c7.94-13.48,14.62-24.63,19.33-32.25,2.27-3.68,4.05-6.5,5.3-8.38,1.66-2.5,2-2.74,2.08-2.74h0c.07,0,.24.14-1.78,4.13.82-1.58,1.47-2.89,2-3.9C448.77,315.64,448.77,315.34,448.71,315.31Z"/><path d="M446.33,320h0c-.15,0-1.17,1.14-7.12,10.78-4.56,7.4-11.05,18.22-18.78,31.29-16.57,28.07-35.68,61.23-49.26,85.37C384.47,423.81,403.52,390.84,420,363h0c7.51-12.69,13.82-23.19,18.25-30.37,2.14-3.47,3.82-6.12,5-7.9,1.56-2.36,1.85-2.59,1.93-2.59h0c.06,0,.19.13-1.62,3.65.73-1.38,1.32-2.54,1.76-3.44C446.36,320.27,446.37,320,446.33,320Z"/><path d="M352.49,482.33h0c.16,0,1.23-1.18,7.35-11.1,4.7-7.62,11.38-18.77,19.32-32.24h0c17.21-29.2,37.05-63.74,51-88.63C416.5,374.66,396.71,409,379.61,438c-7.72,13.07-14.22,23.89-18.78,31.29-2.2,3.57-3.93,6.31-5.14,8.13-1.62,2.44-1.92,2.67-2,2.67h0c-.06,0-.21-.14,1.72-3.92-.78,1.5-1.41,2.74-1.87,3.7C352.45,482,352.44,482.31,352.49,482.33Z"/><path d="M350.06,487.11h0c.11,0,.54-.41,2.2-2.87,1.33-2,3.23-5,5.64-8.89,5-8.09,12.07-19.93,20.46-34.24h0c18.42-31.4,39.61-68.58,54.2-95-14.29,25.75-35.46,62.78-53.77,93.92h0c-8.17,13.89-15.05,25.38-19.89,33.23-2.34,3.79-4.18,6.7-5.48,8.63-1.71,2.57-2.05,2.82-2.15,2.82h0c-.07,0-.26-.15,1.81-4.28-.84,1.64-1.51,3-2,4C350,486.76,350,487.08,350.06,487.11Z"/><path d="M447.51,317.67h0c-.16,0-1.23,1.18-7.35,11.1-4.7,7.62-11.38,18.77-19.32,32.24h0c-17.21,29.2-37.05,63.74-51,88.63C383.5,425.34,403.29,391,420.39,362c7.72-13.07,14.22-23.89,18.78-31.29,2.2-3.57,3.93-6.31,5.14-8.13,1.62-2.44,1.92-2.67,2-2.67h0c.06,0,.21.14-1.72,3.92.78-1.5,1.41-2.74,1.87-3.7C447.55,318,447.56,317.69,447.51,317.67Z"/><path d="M351.29,484.69h0c.08,0,.46-.32,2.12-2.79,1.29-1.94,3.13-4.84,5.47-8.63,4.85-7.85,11.72-19.34,19.88-33.22h0c17.7-30.1,38.08-65.72,52.32-91.32-14,25-34.29,60.44-51.89,90.29h0c-7.94,13.48-14.62,24.63-19.33,32.25-2.27,3.68-4.05,6.5-5.3,8.38-1.66,2.5-2,2.74-2.08,2.74h0c-.07,0-.24-.14,1.78-4.12-.82,1.58-1.47,2.88-2,3.89C351.23,484.36,351.23,484.66,351.29,484.69Z"/><path d="M347.56,492.13h0c.71,0,9-12.73,30-48.83,19.8-33.92,42.54-74.16,57.78-102.1-14.92,27.24-37.66,67.35-57.37,101C369.41,457,362.13,469.17,357,477.51c-2.49,4-4.45,7.11-5.83,9.16-1.82,2.7-2.2,3-2.32,3l0,0c-.09-.05-.31-.17,1.94-4.74C347.71,490.91,347.42,492.05,347.56,492.13Z"/><path d="M452.44,307.87h0c-.71,0-9,12.73-30,48.83-19.8,33.91-42.53,74.16-57.77,102.09,14.91-27.24,37.65-67.34,57.36-101,8.63-14.74,15.91-26.94,21.05-35.28,2.49-4,4.45-7.11,5.83-9.16,2.1-3.12,2.29-3,2.36-3s.31.17-1.94,4.74C452.29,309.09,452.58,308,452.44,307.87Z"/><path d="M451.18,310.41h0c-.12,0-.58.42-2.28,2.95-1.38,2.05-3.34,5.13-5.82,9.16-5.15,8.33-12.43,20.53-21.06,35.28-19.19,32.78-41.25,71.67-56.17,98.84,14.6-26.51,36.66-65.25,55.74-97.77v0c8.39-14.3,15.47-26.13,20.46-34.22,2.41-3.91,4.31-6.9,5.65-8.89,2-3,2.2-2.93,2.27-2.89s.28.16-1.9,4.56c.89-1.76,1.6-3.21,2.12-4.31C451.26,310.77,451.24,310.44,451.18,310.41Z"/><path d="M348.82,489.59h0c.12,0,.58-.42,2.28-2.95,1.38-2.05,3.34-5.13,5.82-9.16,5.15-8.33,12.43-20.53,21.06-35.28,19.18-32.77,41.25-71.66,56.17-98.83-14.61,26.51-36.66,65.24-55.74,97.76v0C370,455.45,363,467.28,358,475.37c-2.41,3.91-4.31,6.9-5.65,8.89-1.76,2.64-2.12,2.9-2.23,2.9h0c-.08,0-.28-.16,1.9-4.56-.89,1.76-1.6,3.21-2.12,4.31C348.74,489.23,348.76,489.56,348.82,489.59Z"/><path d="M449.94,312.89h0c-.11,0-.54.41-2.2,2.87-1.33,2-3.23,5-5.64,8.89-5,8.09-12.07,19.93-20.46,34.24h0c-18.43,31.42-39.64,68.63-54.23,95,14.29-25.76,35.48-62.82,53.8-94h0c8.17-13.89,15.05-25.38,19.89-33.23,2.34-3.79,4.18-6.7,5.48-8.63,1.95-2.94,2.12-2.85,2.19-2.81s.26.15-1.81,4.28c.84-1.64,1.51-3,2-4C450,313.24,450,312.92,449.94,312.89Z"/><path d="M357.11,473.5h0c.06,0,.35-.27,1.77-2.44,1.1-1.67,2.68-4.17,4.69-7.44,4.17-6.76,10.13-16.65,17.23-28.6,14.82-25,31.93-54.37,44.49-76.39-12.32,21.54-29.36,50.75-44.06,75.46-6.9,11.6-12.69,21.2-16.73,27.76-5.59,9.06-6.18,9.61-6.29,9.61h0s-.14-.11,1.48-3.2c-.65,1.2-1.17,2.21-1.58,3C357.1,473.22,357.07,473.48,357.11,473.5Z"/><path d="M441.79,328.57h0c-.36,0-6.58,9.76-23,37.35-14.24,23.95-30.69,52.14-42.9,73.46,12-20.85,28.34-48.84,42.47-72.55,6.71-11.26,12.33-20.58,16.26-26.94,5.43-8.81,6-9.34,6.09-9.34h0s.13.09-1.34,2.88C441.56,329.41,441.85,328.62,441.79,328.57Z"/><path d="M358.21,471.43h0c.36,0,6.58-9.76,23-37.35,14.24-23.95,30.69-52.14,42.9-73.46-12,20.85-28.34,48.84-42.47,72.55-6.71,11.26-12.33,20.58-16.26,26.94-5.43,8.81-6,9.34-6.09,9.34h0s-.13-.09,1.34-2.89C358.44,470.59,358.15,471.38,358.21,471.43Z"/><path d="M346.29,494.74h0c.78,0,9.3-13.12,30.95-50.3,20.35-35,43.68-76.42,59.24-105.13-15.24,28-38.57,69.32-58.83,104-8.87,15.19-16.36,27.77-21.67,36.36-2.56,4.15-4.58,7.32-6,9.43-1.79,2.63-2.26,3.06-2.42,3.06h0c-.1-.05-.34-.19,2-5C346.42,493.47,346.13,494.65,346.29,494.74Z"/><path d="M359.29,469.41h0c.33,0,6.37-9.48,22.32-36.25,13.83-23.2,29.79-50.5,41.69-71.2-11.67,20.26-27.55,47.36-41.26,70.31-6.52,10.93-12,20-15.79,26.15-5.28,8.57-5.8,9.06-5.9,9.06h0s-.12-.08,1.34-2.84C359.54,468.58,359.24,469.36,359.29,469.41Z"/><path d="M440.71,330.59h0c-.33,0-6.37,9.48-22.32,36.25C404.56,390,388.6,417.34,376.7,438c11.67-20.26,27.55-47.36,41.26-70.31,6.52-10.93,12-20,15.79-26.15,5.28-8.57,5.8-9.06,5.9-9.06h0s.12.08-1.34,2.84C440.46,331.42,440.76,330.64,440.71,330.59Z"/><path d="M353.67,480h0c.15,0,1.17-1.14,7.12-10.78,4.56-7.4,11.05-18.22,18.78-31.29,16.57-28.07,35.68-61.23,49.26-85.37C415.53,376.19,396.48,409.16,380,437h0c-7.51,12.69-13.82,23.19-18.25,30.37-2.14,3.47-3.82,6.12-5,7.9-1.56,2.36-1.85,2.59-1.93,2.59h0c-.06,0-.19-.13,1.62-3.66-.73,1.39-1.32,2.55-1.76,3.45C353.64,479.73,353.63,480,353.67,480Z"/><path d="M354.84,477.8h0c.13,0,1.11-1.1,6.88-10.47,4.43-7.18,10.74-17.68,18.25-30.37h0c16.1-27.2,34.68-59.34,47.94-82.81-13,22.93-31.52,54.89-47.5,81.85-7.3,12.31-13.43,22.5-17.73,29.47-5.91,9.58-6.57,10.19-6.7,10.19h0s-.17-.12,1.6-3.55c-.71,1.34-1.29,2.47-1.72,3.34C354.82,477.5,354.8,477.78,354.84,477.8Z"/><path d="M442.89,326.5h0c-.06,0-.35.27-1.77,2.44-1.1,1.67-2.68,4.17-4.69,7.44C432.26,343.14,426.3,353,419.2,365c-14.82,25-31.93,54.37-44.49,76.39,12.32-21.54,29.36-50.75,44.06-75.46,6.9-11.6,12.69-21.2,16.73-27.76,5.59-9.06,6.18-9.61,6.29-9.61h0s.14.11-1.48,3.2c.65-1.2,1.17-2.21,1.58-3C442.9,326.78,442.93,326.52,442.89,326.5Z"/><path d="M445.16,322.2h0c-.13,0-1.11,1.1-6.88,10.47-4.43,7.18-10.74,17.68-18.25,30.37h0c-16.1,27.2-34.68,59.34-47.94,82.81,13-22.93,31.52-54.89,47.5-81.85,7.3-12.31,13.43-22.5,17.73-29.47,6.4-10.38,6.64-10.23,6.73-10.18s.17.12-1.6,3.55c.71-1.34,1.29-2.47,1.72-3.34C445.18,322.5,445.2,322.22,445.16,322.2Z"/><path d="M444,324.38h0c-.06,0-.37.28-1.83,2.51-1.14,1.72-2.76,4.29-4.84,7.66-4.3,7-10.43,17.16-17.73,29.47-15.45,26.07-33.29,56.82-46.2,79.56,12.66-22.23,30.43-52.8,45.76-78.61,7.1-12,13.06-21.85,17.23-28.61,5.75-9.32,6.37-9.89,6.49-9.89h0s.16.12-1.51,3.33c.66-1.25,1.21-2.3,1.62-3.12C444,324.67,444.05,324.4,444,324.38Z"/><path d="M356,475.62s.31-.17,1.84-2.51c1.14-1.72,2.76-4.29,4.84-7.66,4.3-7,10.43-17.16,17.73-29.47,15.45-26.07,33.29-56.82,46.2-79.56-12.66,22.23-30.43,52.8-45.76,78.61-7.1,12-13.06,21.85-17.23,28.61-5.75,9.32-6.37,9.89-6.49,9.89h0s-.16-.12,1.51-3.33c-.66,1.25-1.21,2.3-1.62,3.12C356,475.33,356,475.6,356,475.62Z"/><path d="M339.72,508.77h0c.42,0,2.37-2.08,10.25-14.82,6.36-10.29,15.23-25.34,25.66-43.54,24.07-42,51.36-91.85,68.38-124.67-16.64,31.93-44,81.75-68,123.47v0c-10.16,17.65-18.78,32.25-24.95,42.23-3,4.82-5.35,8.5-7,10.94-2.07,3-2.69,3.5-2.93,3.5l-.07,0c-.15-.08-.23-.51.88-3.21.38-.9.86-2,1.45-3.28C339.7,507.18,339.48,508.65,339.72,508.77Z"/><path d="M335.68,518h.07c.54,0,2.79-2.29,11.37-16.16,7-11.26,16.62-27.73,27.91-47.65,26.69-47.09,56.75-103.16,74.41-138.51C432.21,350,402,406.09,375.29,453h0c-11,19.32-20.39,35.31-27.15,46.23C341.68,509.66,338,515,337.07,515H337c-.54-.28.8-3.72,2.28-7.12C335.51,516.24,335.37,517.86,335.68,518Z"/><path d="M463,285.13h-.06c-.5,0-2.64,2.22-11,15.71-6.75,10.92-16.13,26.9-27.13,46.22h0C399,392.33,369.93,446.2,352.45,480.71c17.07-33.51,46.32-87.37,72.05-132.42v0c10.71-18.74,19.83-34.25,26.39-44.84,6.28-10.16,9.87-15.3,10.69-15.3l.07,0c.18.09.29.55-.81,3.37-.43,1.09-1,2.46-1.75,4.09C463.08,286.91,463.26,285.28,463,285.13Z"/><path d="M461.62,288.21h-.05c-.46,0-2.5,2.15-10.61,15.27-6.56,10.59-15.68,26.11-26.39,44.86l0,0c-25.07,43.89-53.47,96.14-70.7,129.78,16.82-32.67,45.37-84.91,70.41-128.58,10.43-18.2,19.3-33.26,25.66-43.54s9.79-15.17,10.39-14.85c.17.09.27.53-.84,3.29-.41,1-.94,2.23-1.6,3.68C461.68,289.9,461.89,288.35,461.62,288.21Z"/><path d="M464.32,282c-.41-.21-2.44,1.61-11.44,16.15-7,11.26-16.62,27.73-27.91,47.65-26.69,47.09-56.75,103.16-74.41,138.51C367.79,450,398,393.91,424.71,347h0c11-19.32,20.39-35.31,27.15-46.23,6.46-10.45,10.19-15.74,11.07-15.74H463c.54.28-.8,3.72-2.28,7.12C464.49,283.76,464.63,282.14,464.32,282Z"/><path d="M337,514.87h.06c.5,0,2.64-2.22,11-15.71,6.75-10.92,16.13-26.9,27.13-46.22h0c25.76-45.27,54.85-99.14,72.33-133.65-17.07,33.51-46.32,87.37-72.05,132.42v0c-10.71,18.74-19.83,34.25-26.39,44.84-6.28,10.16-9.87,15.3-10.69,15.3l-.07,0c-.18-.09-.29-.55.81-3.37.44-1.1,1-2.48,1.76-4.12C336.92,513.08,336.74,514.72,337,514.87Z"/><path d="M338.38,511.79h.05c.46,0,2.5-2.15,10.61-15.27,6.56-10.59,15.68-26.11,26.39-44.86l0,0c25.07-43.89,53.47-96.14,70.7-129.78-16.82,32.67-45.37,84.91-70.41,128.58-10.43,18.2-19.3,33.26-25.66,43.54-6.1,9.87-9.57,14.86-10.33,14.86h-.06c-.17-.09-.27-.53.84-3.29.41-1,.94-2.23,1.6-3.68C338.32,510.1,338.11,511.65,338.38,511.79Z"/><path d="M331.65,527.9c.52.26,2.87-1.66,12.76-17.6,7.64-12.32,18.12-30.35,30.31-52.15,29.32-52.41,61.94-114.8,80-152.68-17.62,36.65-50.54,99.17-79.88,151.39h0C363,478,352.77,495.53,345.37,507.48c-7.07,11.39-11.2,17.16-12.31,17.16l-.12,0c-.61-.31.28-3.33,2.74-9.18C333.22,521.19,330.78,527.47,331.65,527.9Z"/><path d="M467,275.47a.15.15,0,0,0-.09,0c-.64,0-3.12,2.44-12.22,17.12-7.4,11.95-17.6,29.45-29.49,50.6h0c-28.37,50.48-60.08,110.59-78.08,147.64,17.54-35.88,49.5-96.07,77.89-146.37h0c11.58-20.52,21.51-37.51,28.69-49.11,6.86-11.07,10.85-16.67,11.88-16.67l.1,0c.56.29-.33,3.16-2.71,8.74,1.55-3.56,2.68-6.38,3.37-8.37C467.31,276.29,467.24,275.58,467,275.47Z"/><path d="M465.67,278.76l-.08,0c-.59,0-2.95,2.37-11.78,16.64-7.19,11.6-17.11,28.57-28.69,49.1h0c-27.48,48.69-58.3,106.65-76.16,142.86,17.41-35.1,48.46-93.11,75.95-141.6,11.29-19.92,20.94-36.39,27.9-47.65,6.66-10.76,10.52-16.2,11.47-16.2a.15.15,0,0,1,.09,0c.6.3-.83,4-2.36,7.59,1.33-3,2.33-5.47,3-7.23C465.93,279.56,465.88,278.87,465.67,278.76Z"/><path d="M333,524.53a.15.15,0,0,0,.09,0c.64,0,3.12-2.44,12.22-17.12,7.4-11.95,17.6-29.45,29.49-50.6h0c28.37-50.48,60.08-110.59,78.08-147.64-17.54,35.88-49.5,96.07-77.89,146.37h0c-11.58,20.52-21.51,37.51-28.69,49.11-6.86,11.07-10.85,16.67-11.88,16.67l-.1,0c-.56-.29.33-3.16,2.71-8.74-1.55,3.56-2.68,6.38-3.37,8.37C332.69,523.71,332.76,524.42,333,524.53Z"/><path d="M334.33,521.24l.08,0c.59,0,2.95-2.37,11.78-16.64,7.19-11.6,17.11-28.57,28.69-49.1h0c27.48-48.69,58.3-106.65,76.16-142.86-17.41,35.1-48.46,93.11-75.95,141.6-11.29,19.92-20.94,36.39-27.9,47.65-6.66,10.76-10.52,16.2-11.47,16.2a.15.15,0,0,1-.09,0c-.6-.3.83-4,2.36-7.59-1.34,3-2.33,5.47-3,7.23C334.07,520.44,334.12,521.13,334.33,521.24Z"/><path d="M439.65,332.55h0c-.31,0-6.16,9.2-21.67,35.19-13.38,22.42-28.84,48.79-40.44,68.88,11.37-19.65,26.75-45.82,40-68h0c6.33-10.6,11.64-19.37,15.34-25.37,5.13-8.33,5.62-8.8,5.71-8.8h0s.11.08-1.25,2.63C439.4,333.35,439.7,332.6,439.65,332.55Z"/><path d="M343.7,500.15h0c.9,0,10-13.91,32.84-53.38,21.82-37.69,46.74-82.44,62.91-112.76C423.66,363.56,398.69,408.2,377,445.63v0c-9.36,16.12-17.29,29.47-22.92,38.59-2.72,4.4-4.88,7.77-6.4,10-1.89,2.77-2.42,3.23-2.61,3.23l0,0c-.12-.06-.16-.45.95-3q.49-1.12,1.23-2.67C343.77,498.76,343.51,500.05,343.7,500.15Z"/><path d="M456.3,299.85h0c-.9,0-10,13.91-32.84,53.38-21.82,37.69-46.74,82.44-62.91,112.76,15.82-29.54,40.79-74.18,62.52-111.61v0c9.36-16.12,17.29-29.47,22.92-38.59,2.72-4.4,4.88-7.77,6.4-10,2.09-3.06,2.51-3.3,2.66-3.21s.16.45-.95,3q-.49,1.13-1.23,2.67C456.23,301.24,456.49,300,456.3,299.85Z"/><path d="M342.38,503h0c1,0,10.37-14.33,33.84-55,22.73-39.38,48.67-86.24,65.12-117.4-16.07,30.31-42.08,77.08-64.75,116.24C367,463.44,358.84,477.19,353,486.59c-2.81,4.54-5,8-6.61,10.31-1.95,2.85-2.51,3.32-2.71,3.32h-.05c-.3-.16.43-2.1,2.21-5.87C342.43,501.51,342.18,502.85,342.38,503Z"/><path d="M345,497.41h0c.83,0,9.64-13.51,31.88-51.82h0c21-36.25,45.11-79.25,61-108.76-15.53,28.77-39.64,71.66-60.59,107.65-9.12,15.65-16.83,28.61-22.29,37.46-2.64,4.28-4.73,7.54-6.2,9.72-1.84,2.7-2.34,3.14-2.52,3.14h0c-.11-.07-.14-.44,1-2.9.31-.68.69-1.49,1.14-2.42C345.1,496.08,344.83,497.32,345,497.41Z"/><path d="M455,302.59h0c-.83,0-9.64,13.51-31.88,51.82h0c-21,36.25-45.11,79.25-61,108.76,15.53-28.77,39.64-71.66,60.59-107.65,9.12-15.65,16.83-28.61,22.29-37.46,2.64-4.28,4.73-7.54,6.2-9.72,1.84-2.7,2.34-3.14,2.52-3.14h0c.11.07.14.44-1,2.9-.31.68-.69,1.49-1.14,2.42C454.9,303.92,455.17,302.68,455,302.59Z"/><path d="M460.28,291.23h0c-.42,0-2.37,2.08-10.25,14.82-6.36,10.29-15.23,25.34-25.66,43.54-24.07,42-51.36,91.85-68.38,124.67,16.64-31.93,44-81.75,68-123.47v0c10.16-17.65,18.78-32.25,24.95-42.23,3-4.82,5.35-8.5,7-10.94,2.07-3,2.69-3.5,2.93-3.5l.07,0c.15.08.23.51-.88,3.21-.38.9-.86,2-1.45,3.28C460.3,292.82,460.52,291.35,460.28,291.23Z"/><path d="M459,294.17h0c-.4,0-2.25,2-9.91,14.41-6.17,10-14.8,24.59-25,42.24v0c-23.38,40.64-50,89-66.73,121,16.37-31.11,43.07-79.38,66.39-119.78,9.89-17.14,18.28-31.32,24.26-41,2.89-4.68,5.19-8.25,6.82-10.62,2.23-3.23,2.71-3.49,2.88-3.39s.21.48-.91,3.12c-.37.88-.85,1.94-1.42,3.18C458.92,295.71,459.17,294.29,459,294.17Z"/><path d="M453.71,305.26h0c-.78,0-9.3,13.12-30.95,50.3-20.35,35-43.68,76.42-59.24,105.13,15.24-28,38.57-69.32,58.83-104,8.87-15.19,16.36-27.77,21.67-36.36,2.56-4.15,4.58-7.32,6-9.43,1.79-2.63,2.26-3.06,2.42-3.06h0c.1.05.34.19-2,5C453.58,306.53,453.87,305.35,453.71,305.26Z"/><path d="M341.05,505.83h0c.4,0,2.25-2,9.91-14.41,6.17-10,14.8-24.59,25-42.24v0c23.38-40.64,50-89,66.73-120.95C426.33,359.33,399.63,407.6,376.31,448c-9.89,17.14-18.28,31.32-24.26,41-2.89,4.68-5.19,8.25-6.82,10.62-2,2.92-2.6,3.41-2.82,3.41l-.06,0c-.15-.07-.21-.48.91-3.12.37-.88.85-1.94,1.42-3.18C341.08,504.29,340.83,505.71,341.05,505.83Z"/><path d="M457.62,297h0c-1,0-10.37,14.33-33.84,55-22.73,39.38-48.67,86.24-65.12,117.4,16.07-30.31,42.08-77.08,64.75-116.24,9.63-16.63,17.79-30.38,23.59-39.78,2.81-4.54,5-8,6.61-10.31,2.14-3.13,2.6-3.39,2.76-3.31s-.43,2.1-2.21,5.87C457.57,298.49,457.82,297.15,457.62,297Z"/><path d="M364.37,460.12c.24,0,5.42-8.21,19.24-31.25,11.49-19.13,24.73-41.51,35-59.12C408.53,387,395.38,409.19,384,428.09c-5.65,9.41-10.38,17.19-13.66,22.52-4.58,7.43-5,7.82-5,7.82h0s-.07-.07,1-2A28.53,28.53,0,0,0,364.37,460.12Z"/><path d="M387.58,421.15c7.23-11.92,15.49-25.62,22.53-37.39-6.91,11.53-15.06,25-22.19,36.8-3.12,5.14-13.29,21.86-13.49,21.86h0s0,0,.56-1.06c-1,1.72-1.27,2.24-1.28,2.31C374,443.47,379.26,434.87,387.58,421.15Z"/><path d="M412.1,379.45c-6.87,11.3-14.66,24.23-21.39,35.45,6.61-11,14.31-23.76,21.06-34.88,3-5,12.91-21.22,13.09-21.22h0s0,0-.56,1.05c1-1.68,1.24-2.19,1.26-2.26C425.32,357.79,420.18,366.14,412.1,379.45Z"/><path d="M412.42,378.85c-7.23,11.92-15.49,25.62-22.53,37.39,6.91-11.53,15.06-25,22.19-36.8,3.12-5.14,13.29-21.86,13.49-21.86h0s0,0-.56,1.06c1-1.72,1.27-2.24,1.28-2.31C426,356.53,420.74,365.13,412.42,378.85Z"/><path d="M387.9,420.55c6.87-11.3,14.66-24.23,21.39-35.45-6.61,11-14.31,23.76-21.06,34.88-3,5-12.91,21.22-13.09,21.22h0s0,0,.56-1.05c-1,1.68-1.24,2.19-1.26,2.26C374.68,442.21,379.82,433.86,387.9,420.55Z"/><path d="M411.78,380c-6.58,10.83-14.06,23.22-20.55,34,6.37-10.6,13.75-22.81,20.23-33.47,3.77-6.2,12.54-20.6,12.7-20.6h0s0,0-.55,1c.95-1.64,1.22-2.14,1.24-2.21C424.61,359,419.62,367.12,411.78,380Z"/><path d="M386.91,422.39c7.86-13,16.83-27.9,24.4-40.58-7.43,12.43-16.3,27.18-24.05,40C384,427.22,373.18,445,373,445h0s0,0,.65-1.24c-1.1,1.91-1.4,2.48-1.41,2.55C372.45,446.11,378.08,437,386.91,422.39Z"/><path d="M386.57,423c8.28-13.67,17.78-29.51,25.68-42.77-7.75,13-17.15,28.64-25.32,42.13-3.41,5.62-14.5,23.91-14.75,23.91h0s0,0,.68-1.3c-1.14,2-1.45,2.58-1.46,2.65C371.67,447.49,377.47,438.08,386.57,423Z"/><path d="M413.09,377.61c-7.86,13-16.83,27.9-24.4,40.58,7.43-12.43,16.3-27.18,24.05-40C416,372.78,426.82,355,427.05,355h0s0,0-.65,1.24c1.1-1.91,1.4-2.48,1.41-2.55C427.55,353.89,421.92,363,413.09,377.61Z"/><path d="M413.43,377c-8.28,13.67-17.78,29.51-25.68,42.77,7.75-13,17.15-28.64,25.32-42.13,3.41-5.62,14.5-23.91,14.75-23.91h0s0,0-.68,1.3c1.14-2,1.45-2.58,1.46-2.65C428.33,352.51,422.53,361.92,413.43,377Z"/><path d="M387.25,421.76c7.67-12.64,16.43-27.22,23.81-39.56-7.24,12.1-15.91,26.5-23.47,39-3.21,5.29-13.68,22.52-13.89,22.52h0s0,0,.62-1.19c-1.06,1.85-1.35,2.4-1.36,2.47C373.21,444.77,378.67,435.91,387.25,421.76Z"/><path d="M412.75,378.24c-7.67,12.64-16.43,27.22-23.81,39.56,7.24-12.1,15.91-26.5,23.47-39,3.21-5.29,13.68-22.52,13.89-22.52h0s0,0-.62,1.18c1.06-1.84,1.35-2.39,1.36-2.46C426.79,355.23,421.33,364.09,412.75,378.24Z"/><path d="M388.22,420c6.58-10.83,14.06-23.22,20.55-34-6.37,10.6-13.75,22.81-20.23,33.47-3.77,6.2-12.54,20.6-12.7,20.6h0s0,0,.55-1c-.95,1.64-1.22,2.14-1.24,2.21C375.39,441,380.38,432.88,388.22,420Z"/><path d="M389.13,418.32c5.86-9.63,12.51-20.61,18.37-30.32-5.74,9.51-12.3,20.32-18.07,29.8-3.45,5.67-11.49,18.84-11.62,18.84h0s0,0,.42-.79c-.79,1.36-1,1.8-1.05,1.86C377.4,437.49,382,430.09,389.13,418.32Z"/><path d="M389.42,417.79c5.77-9.46,12.32-20.26,18.05-29.76-5.63,9.31-12.08,20-17.75,29.26-3.36,5.51-11.16,18.29-11.28,18.29h0s0,0,.42-.78c-.78,1.33-1,1.76-1,1.82C378,436.4,382.47,429.22,389.42,417.79Z"/><path d="M410.58,382.21c-5.67,9.3-12.09,19.89-17.75,29.27,5.55-9.2,11.88-19.63,17.45-28.77,3.36-5.51,11.16-18.29,11.28-18.29h0s0,0-.42.78c.78-1.33,1-1.76,1-1.82C422,363.6,417.53,370.78,410.58,382.21Z"/><path d="M410.29,382.71c-10.44,17.13-23.55,38.83-29.23,48.37h0c-2.08,3.5-2.58,4.38-2.61,4.48.21-.23,4.51-7.2,11.26-18.27,10.44-17.13,23.55-38.83,29.23-48.37,2.08-3.5,2.58-4.38,2.61-4.48C421.34,364.67,417,371.64,410.29,382.71Z"/><path d="M423.71,332.43h0c14.46-26.93,27.12-49.21,36.63-64.44,4.59-7.34,8.36-12.92,11.2-16.57s4.8-5.37,5.7-5c1.36.6.29,5.89-3.17,15.73l0,.05c-.35,1-.72,2-1.11,3.1.91-2.47,1.73-4.79,2.45-6.92,4.14-12.28,3.87-15.34,2.92-15.75s-4.73,1.8-17.43,22.11c-9.81,15.69-22.81,38.65-37.6,66.39h0C384.84,403.29,344.12,489.38,328.05,532,343.3,491.64,384.89,404.74,423.71,332.43Z"/><path d="M388.84,418.85c5.92-9.73,12.62-20.8,18.55-30.66-5.82,9.67-12.43,20.57-18.25,30.13-3.55,5.84-11.83,19.41-12,19.41h0s0,0,.5-.93c-.88,1.5-1.13,2-1.15,2C376.75,438.62,381.45,431,388.84,418.85Z"/><path d="M410.87,381.68C405,391.31,398.36,402.29,392.5,412c5.74-9.51,12.3-20.32,18.07-29.8,3.45-5.67,11.49-18.84,11.62-18.84h0s0,0-.42.79c.79-1.36,1-1.8,1.05-1.86C422.6,362.51,418,369.91,410.87,381.68Z"/><path d="M411.16,381.15c-5.92,9.73-12.62,20.8-18.55,30.66,5.82-9.67,12.43-20.57,18.25-30.13,3.55-5.84,11.83-19.41,12-19.41h0s0,0-.5.93c.88-1.5,1.13-2,1.15-2C423.25,361.38,418.55,369,411.16,381.15Z"/><path d="M388.53,419.4c6.41-10.54,13.7-22.61,20-33.13-6.21,10.32-13.4,22.21-19.71,32.59-3.67,6-12.19,20-12.34,20h0s0,0,.49-.91c-.88,1.51-1.14,2-1.15,2.05C376.08,439.78,380.92,431.92,388.53,419.4Z"/><path d="M411.47,380.6c-6.41,10.54-13.7,22.61-20,33.13,6.21-10.32,13.4-22.21,19.71-32.59,3.67-6,12.19-20,12.34-20h0s0,0-.49.91c.88-1.51,1.14-2,1.15-2.05C423.92,360.22,419.08,368.08,411.47,380.6Z"/><path d="M468.35,272.1l-.09,0c-.7,0-3.31,2.53-12.67,17.62C448,302,437.47,320.05,425.28,341.85c-29.32,52.41-61.94,114.8-80,152.68,17.62-36.65,50.54-99.17,79.88-151.39h0C437,322,447.23,304.47,454.63,292.52c7.07-11.39,11.2-17.16,12.31-17.16l.12,0c.61.31-.28,3.32-2.73,9.16C466.79,278.8,469.22,272.53,468.35,272.1Z"/><path d="M360.35,467.45h0c.31,0,6.16-9.2,21.67-35.19,13.38-22.42,28.84-48.79,40.44-68.88-11.37,19.65-26.75,45.82-40,68h0c-6.33,10.6-11.64,19.37-15.34,25.37-5.13,8.33-5.62,8.8-5.71,8.8h0s-.11-.08,1.25-2.63C360.6,466.65,360.3,467.4,360.35,467.45Z"/><path d="M435.63,339.88c-.24,0-5.42,8.21-19.24,31.25-11.49,19.13-24.73,41.51-35,59.12,10.1-17.25,23.25-39.44,34.61-58.34,5.65-9.41,10.38-17.19,13.66-22.52,4.58-7.43,5-7.82,5-7.82h0s.07.07-1,2A27.34,27.34,0,0,0,435.63,339.88Z"/><path d="M386.22,423.71c8.69-14.38,18.67-31,26.88-44.84-8.06,13.55-17.94,30-26.52,44.18-3.5,5.79-14.92,24.63-15.18,24.63h0s0,0,.75-1.44a27.48,27.48,0,0,0-1.54,2.83C370.87,448.91,376.84,439.22,386.22,423.71Z"/><path d="M416,371.92c-10.95,18.22-23.56,39.48-33.5,56.44,9.76-16.61,22.27-37.68,33.1-55.67,5.49-9.13,10.08-16.69,13.26-21.86,4.46-7.22,4.83-7.59,4.89-7.59h0s.07.06-1,1.94a24.72,24.72,0,0,0,1.87-3.59C434.45,341.6,429.43,349.58,416,371.92Z"/><path d="M415.62,372.7c-10.57,17.56-22.75,38.06-32.41,54.49,9.47-16.09,21.55-36.39,32-53.75,5.33-8.86,9.79-16.19,12.88-21.21,4.33-7,4.68-7.37,4.74-7.37h0s.07,0-.85,1.7a24.63,24.63,0,0,0,1.74-3.3C433.53,343.28,428.66,351,415.62,372.7Z"/><path d="M384,428.08c10.95-18.22,23.56-39.48,33.5-56.44-9.76,16.61-22.27,37.68-33.1,55.67-5.49,9.13-10.08,16.69-13.26,21.86-4.46,7.22-4.83,7.59-4.89,7.59h0s-.07-.06,1-1.93a23,23,0,0,0-1.87,3.58C365.55,458.4,370.57,450.42,384,428.08Z"/><path d="M436.6,338.12h0c-.25,0-5.59,8.45-19.82,32.19-11.84,19.75-25.49,42.86-36.07,61,10.38-17.77,23.94-40.68,35.66-60.21,5.81-9.69,10.68-17.71,14.06-23.2,4.72-7.64,5.13-8.05,5.2-8.05h0s.08.07-1,2.13A25,25,0,0,0,436.6,338.12Z"/><path d="M438.61,334.46h0c-.28,0-6,8.94-21,34.16h0c-12.78,21.39-27.52,46.46-38.74,65.84,11-19,25.67-43.85,38.32-65,6.16-10.29,11.32-18.8,14.91-24.63,5-8.09,5.45-8.54,5.54-8.54h0s.1.07-1.2,2.51C438.36,335.23,438.65,334.51,438.61,334.46Z"/><path d="M361.39,465.54h0c.28,0,6-8.94,21-34.16h0C395.21,410,410,384.92,421.17,365.54c-11,19-25.67,43.85-38.32,65-6.16,10.29-11.32,18.8-14.91,24.63-5,8.09-5.45,8.54-5.54,8.54h0s-.1-.07,1.2-2.51C361.64,464.77,361.35,465.49,361.39,465.54Z"/><path d="M437.6,336.31h0c-.34,0-8.35,13-20.41,33.16-12.35,20.63-26.6,44.81-37.51,63.59,10.71-18.39,24.87-42.37,37.09-62.76,6-10,11-18.25,14.48-23.91,4.85-7.86,5.29-8.29,5.36-8.29h0s.1.07-1.15,2.38A27.47,27.47,0,0,0,437.6,336.31Z"/><path d="M362.4,463.69h0c.34,0,8.35-13,20.41-33.16,12.35-20.63,26.6-44.81,37.51-63.59-10.71,18.39-24.87,42.37-37.09,62.76-6,10-11,18.25-14.48,23.91-4.85,7.86-5.29,8.29-5.36,8.29h0s-.1-.07,1.15-2.38A27.47,27.47,0,0,0,362.4,463.69Z"/><path d="M363.4,461.88h0c.25,0,5.59-8.45,19.82-32.19,11.84-19.75,25.49-42.86,36.07-61-10.38,17.77-23.94,40.68-35.66,60.21-5.81,9.69-10.68,17.71-14.06,23.2-4.72,7.64-5.13,8.05-5.2,8.05h0s-.08-.07,1-2.13A25,25,0,0,0,363.4,461.88Z"/><path d="M414.13,375.61c-9.09,15.05-19.56,32.56-28.08,46.92,8.36-14.07,18.72-31.38,27.71-46.25,3.61-6,15.37-25.37,15.65-25.37h0s0,0-.74,1.45a27.35,27.35,0,0,0,1.56-2.88C430,349.6,425.67,356.52,414.13,375.61Z"/><path d="M385.5,425.09c9.3-15.41,20-33.3,28.71-48-8.56,14.45-19.15,32.15-28.33,47.34-4.89,8.1-9,14.8-11.8,19.39-4,6.44-4.27,6.75-4.32,6.75h0s-.05,0,.77-1.52a29.78,29.78,0,0,0-1.61,3C369.15,451.9,373.62,444.78,385.5,425.09Z"/><path d="M414.5,374.91c-9.3,15.41-20,33.3-28.71,48,8.56-14.45,19.15-32.15,28.33-47.34,4.89-8.1,9-14.8,11.8-19.39,4-6.44,4.27-6.75,4.32-6.75h0s.05,0-.77,1.52a29.78,29.78,0,0,0,1.61-3C430.85,348.1,426.38,355.22,414.5,374.91Z"/><path d="M413.78,376.29c-8.69,14.38-18.67,31-26.88,44.84,8.06-13.55,17.94-30,26.52-44.18,3.5-5.79,14.92-24.63,15.18-24.63h0s0,0-.75,1.44a27.48,27.48,0,0,0,1.54-2.83C429.13,351.09,423.16,360.78,413.78,376.29Z"/><path d="M385.87,424.39c9.09-15.05,19.56-32.56,28.08-46.92-8.36,14.07-18.72,31.38-27.71,46.25-3.61,6-15.37,25.37-15.65,25.37h0s0,0,.74-1.45a27.35,27.35,0,0,0-1.56,2.88C370,450.4,374.33,443.48,385.87,424.39Z"/><path d="M384.38,427.3c10.57-17.56,22.75-38.06,32.41-54.49-9.47,16.09-21.55,36.39-32,53.75-5.33,8.86-9.79,16.19-12.88,21.21-4.33,7-4.68,7.37-4.74,7.37h0s-.07,0,.85-1.7a24.63,24.63,0,0,0-1.74,3.3C366.47,456.72,371.34,449,384.38,427.3Z"/><path d="M384.76,426.55c10.13-16.82,21.78-36.39,31.11-52.22-9.16,15.52-20.71,34.9-30.72,51.49-5.18,8.6-9.51,15.72-12.51,20.58-4.21,6.83-4.54,7.17-4.59,7.17h0s-.06-.05.92-1.81a25.93,25.93,0,0,0-1.79,3.37C367.36,455.1,372.09,447.58,384.76,426.55Z"/><path d="M385.14,425.81c9.86-16.37,21.23-35.43,30.33-50.84-8.93,15.1-20.2,34-30,50.13-5,8.34-9.24,15.25-12.15,20-4.09,6.63-4.4,6.95-4.45,6.95h0s-.06,0,.83-1.64a28.94,28.94,0,0,0-1.69,3.16C368.24,453.52,372.83,446.22,385.14,425.81Z"/><path d="M415.24,373.45c-10.13,16.82-21.78,36.39-31.11,52.22,9.16-15.52,20.71-34.9,30.72-51.49,5.18-8.6,9.51-15.72,12.51-20.58,4.21-6.83,4.54-7.17,4.59-7.17h0s.06.05-.92,1.81a25.93,25.93,0,0,0,1.79-3.37C432.64,344.9,427.91,352.42,415.24,373.45Z"/><path d="M414.86,374.19C405,390.56,393.63,409.62,384.53,425c8.93-15.1,20.2-34,30-50.13,5-8.34,9.24-15.25,12.15-20,4.34-7,4.43-7,4.46-6.95s.06,0-.83,1.64a28.94,28.94,0,0,0,1.69-3.16C431.76,346.48,427.17,353.78,414.86,374.19Z"/><path d="M425.81,115.28c-19.66,0-39.77,5.89-59.33,17.54-28.41,16.91-55,45.45-77,82.54-22.65,38.23-39.78,84.73-49.54,134.48C209.62,504.4,256.79,652.62,345.07,680.26c28.5,8.92,59.08,4.4,88.45-13.08,28.41-16.91,55-45.45,77-82.54,22.65-38.23,39.78-84.73,49.54-134.48,30.31-154.55-16.86-302.78-105.14-330.42A97.08,97.08,0,0,0,425.81,115.28ZM544.88,243.67c15.57,62.83,15.16,138.15-1.15,212.1-22.42,101.65-71.81,183.79-128.9,214.36-15.44,8.27-31.07,12.43-46.27,12.43A81.73,81.73,0,0,1,338.85,677c-38.41-14.92-68.15-57.77-83.73-120.65S240,418.18,256.27,344.23c22.42-101.65,71.81-183.79,128.9-214.36,25.75-13.79,52-16.15,76-6.85C499.56,137.94,529.3,180.79,544.88,243.67Z"/><path d="M397.34,605.07c21.38-32.06,42.1-75.9,59.93-126.78,47.33-135,60.07-280,28.41-323.17-6.88-9.37-15.42-13.37-25.35-11.89-16.86,2.51-36.8,20.39-57.67,51.7-21.38,32.06-42.1,75.9-59.93,126.78-47.33,135-60.07,280-28.41,323.17l-.19.14.19-.14c6.88,9.37,15.42,13.37,25.35,11.89C356.53,654.26,376.47,636.38,397.34,605.07Zm-62.68,48.25c-.78.07-1.54.11-2.29.11-8,0-14.78-4.4-20.12-13.12C285.2,596.2,302.49,452.51,350.79,320c18.3-50.2,38.95-93.19,59.73-124.32,20.35-30.51,39.31-47.46,54.82-49,9-.91,16.56,3.47,22.41,13,27,44.11,9.76,187.8-38.54,320.29-18.3,50.2-38.95,93.19-59.73,124.32C369.13,634.81,350.17,651.75,334.66,653.32Z"/><path d="M491.15,184.15c-1.91-9.67-5.57-14.85-10.89-15.4-.32,0-.64-.05-1-.05-19.76,0-57.92,59-95.58,148-50.34,119-83.93,253.2-74.86,299.13,1.91,9.67,5.57,14.85,10.89,15.4a7.78,7.78,0,0,0,1,0c19.76,0,57.92-59,95.58-148C466.63,364.27,500.22,230.08,491.15,184.15Zm-79.4,299.28c-19.09,44.12-38.12,81.07-55,106.84-15.88,24.19-28.78,36.89-37.44,36.89a8.32,8.32,0,0,1-1.12-.08c-5-.68-8.28-6.06-9.67-16-6.4-46,29.38-178.11,79.76-294.52,19.09-44.12,38.12-81.07,55-106.84,16.58-25.26,29.91-38,38.56-36.81,5,.68,8.28,6.06,9.67,16C497.91,234.9,462.13,367,411.75,483.43Z"/><path d="M490.45,174.47c-3.19-9.51-8.05-14.42-14.47-14.61h-.4c-23.82,0-65.16,63.12-103.08,157.51-50,124.36-78.2,262.6-62.95,308.17C312.74,635,317.6,640,324,640.14h.4c23.82,0,65.16-63.12,103.08-157.51C477.46,358.28,505.7,220,490.45,174.47ZM422,483.21c-19.13,46.35-38.84,85.37-57,112.82-17.37,26.26-32,40.09-42.54,40.09-.27,0-.53,0-.79,0-6-.4-10.35-5.55-12.91-15.31-12-45.88,19.06-182.24,69.31-304,19.13-46.35,38.84-85.37,57-112.82,17.37-26.26,32-40.09,42.54-40.09.27,0,.53,0,.79,0,6,.4,10.35,5.55,12.91,15.31C503.31,225.1,472.22,361.47,422,483.21Z"/><path d="M489.71,169.61c-3.89-9.36-9.42-14.11-16.44-14.11h-.18c-26.21.3-69.23,65.61-107,162.52-49.55,127-74.57,267.17-55.76,312.37h0c3.89,9.36,9.42,14.11,16.44,14.11h.18c26.21-.3,69.23-65.61,107-162.52C483.5,354.94,508.52,214.81,489.71,169.61ZM427.86,482.79C408.81,530.2,388.8,570.25,370,598.59c-18.23,27.46-34,41.95-45.56,41.95H324c-6.6-.2-11.59-5.2-14.83-14.88-15.27-45.65,13-184,63-308.45,19.05-47.41,39.06-87.46,57.88-115.8,18.44-27.78,34.33-42.31,46-41.95,6.6.2,11.59,5.2,14.83,14.88C506.09,220,477.85,358.36,427.86,482.79Z"/><path d="M487.36,159.93c-5.26-8.57-11.89-12.9-19.74-12.9-.73,0-1.48,0-2.23.11C450,148.69,431.18,165.57,410.9,196c-20.76,31.11-41.39,74.06-59.68,124.22C303,452.56,285.66,596.06,312.64,640.07c5.75,9.37,13.14,13.68,22,12.79,15.37-1.55,34.21-18.43,54.49-48.81,20.76-31.11,41.39-74.06,59.68-124.22C497,347.44,514.34,203.94,487.36,159.93Zm-46,321.35c-18.63,49.32-39.12,91.34-59.24,121.51-19.73,29.58-37.62,45.62-51.74,46.39l-1,0c-7.61,0-13.81-4.63-18.46-13.78-22.76-44.77-1.38-186.82,47.65-316.63l0-.08c18.63-49.32,39.12-91.34,59.24-121.51,19.73-29.58,37.62-45.62,51.74-46.39,8.08-.45,14.64,4.18,19.5,13.74,22.76,44.78,1.38,186.83-47.65,316.64Z"/><path d="M488.69,164.76c-4.77-9.39-11.18-13.94-19.09-13.51-28.88,1.58-73.33,69-110.62,167.7l0,.08c-49,129.7-70.35,271.53-47.64,316.21,4.77,9.39,11.19,13.94,19.09,13.51,28.88-1.58,73.33-69,110.62-167.7l0-.08C490,351.27,511.4,209.44,488.69,164.76ZM434.33,482.12c-18.89,48.43-39.17,89.49-58.64,118.74-19.09,28.67-36,43.91-48.78,44h-.18c-7.2,0-12.86-4.83-16.82-14.36-18.85-45.29,6.17-185.55,55.76-312.67,18.89-48.43,39.17-89.49,58.64-118.74,19.09-28.67,36-43.91,48.78-44,7.29-.08,13,4.75,17,14.36C508.94,214.74,483.92,355,434.33,482.12Z"/><path d="M491.17,189c-1.35-9.76-4.51-15.05-9.38-15.71a7.64,7.64,0,0,0-1.08-.07c-18,0-54.75,57.09-92.16,143.53C338.2,433.06,302.43,565.1,308.83,611c1.35,9.76,4.51,15.05,9.38,15.71a7.64,7.64,0,0,0,1.08.07c18,0,54.75-57.09,92.16-143.53C461.8,366.94,497.57,234.9,491.17,189Zm-83.82,294.3c-19,43-37.66,78.91-54,103.87-15.22,23.29-27.36,35.51-35.25,35.51a7.27,7.27,0,0,1-1.16-.09c-4.63-.77-7.41-6.24-8.28-16.26-4-45.9,33.7-175.79,84-289.55,19-43,37.66-78.91,54-103.87,16-24.48,28.6-36.73,36.41-35.42,4.63.77,7.41,6.24,8.28,16.26C495.29,239.61,457.62,369.5,407.35,483.26Z"/><path d="M490.92,179.32c-2.52-9.59-6.75-14.65-12.58-15q-.37,0-.75,0c-21.69,0-61.38,61-99.22,152.68-50.21,121.68-81.3,258-69.29,303.75,2.52,9.59,6.75,14.65,12.58,15l.75,0c21.69,0,61.38-61,99.22-152.68C471.84,361.39,502.93,225.12,490.92,179.32Zm-74.3,304.1c-19.15,45.25-38.53,83.23-56.06,109.83-16.59,25.17-30.33,38.41-39.85,38.41a8.43,8.43,0,0,1-1-.06c-5.49-.56-9.26-5.84-11.2-15.68-9.08-46,24.52-180.27,74.88-299.34,19.15-45.25,38.53-83.23,56.06-109.82,16.59-25.18,30.33-38.42,39.85-38.42a8.43,8.43,0,0,1,1,.06c5.49.56,9.26,5.84,11.2,15.68C500.58,230.07,467,364.35,416.62,483.42Z"/><path d="M484.22,195.71c-5.36,0-15.26,10.83-28.1,30.8-14.15,22-31.26,54-49.48,92.42-49,103.43-91.8,223.94-95.4,268.66-.81,10.14.41,15.72,3.63,16.58,5.12,1.37,15.41-9.53,29-30.68,14.15-22,31.26-54,49.48-92.42,49-103.43,91.8-223.94,95.4-268.66.81-10.14-.41-15.72-3.63-16.58A3.39,3.39,0,0,0,484.22,195.71ZM488.13,217c-5,44.3-48.62,162.46-97.15,263.4-18,37.37-34.69,68.4-48.36,89.75-12.59,19.65-21.85,29.94-26.92,29.94a3.39,3.39,0,0,1-.91-.12c-3.11-.9-4.09-6.59-2.92-16.91,5-44.3,48.62-162.46,97.15-263.4,18-37.37,34.69-68.4,48.36-89.75,13.39-20.9,23-31.21,27.83-29.82C488.32,201,489.3,206.65,488.13,217Z"/><path d="M330.32,531.34c.58.28,3.06-1.71,13.24-18.11,7.88-12.7,18.65-31.28,31.15-53.74h0c30.14-54.16,63.53-118.61,81.73-157.36C438.73,339.58,405,404.2,374.81,458.19c-12.2,21.8-22.68,39.84-30.32,52.16C337.22,522.08,332.93,528,331.73,528l-.13,0c-.68-.34.26-3.59,2.85-9.88C331.94,524.1,329.36,530.87,330.32,531.34Z"/><path d="M315,595.26c4.22,1.3,13.51-8.93,26.19-28.8,13.21-20.69,29.53-50.8,47.21-87.09,48-98.45,92.17-214.17,98.49-258,1.48-10.21.83-15.82-1.93-16.67a2.63,2.63,0,0,0-.76-.11c-4.51,0-13.47,10.16-25.43,28.91-13.21,20.69-29.53,50.8-47.21,87.09-48,98.45-92.17,214.17-98.49,258C311.61,588.8,312.26,594.41,315,595.26ZM413.45,321.5c35.07-71.06,63.07-115.24,71.29-112.56,2.67.87,3.12,6.56,1.33,16.91C478.6,269.12,434,382.46,386.55,478.5c-34.06,69-61.44,112.68-70.53,112.68a2.37,2.37,0,0,1-.76-.12c-2.67-.86-3.12-6.56-1.33-16.91C321.4,530.88,366.05,417.54,413.45,321.5Z"/><path d="M457.59,230c-13.66,21.33-30.38,52.36-48.34,89.72-48.53,100.92-92.1,219-97.13,263.32-1.16,10.18-.24,15.78,2.74,16.64,4.64,1.33,14.42-9.22,27.55-29.72,13.66-21.33,30.38-52.36,48.34-89.72,48.53-100.92,92.1-219,97.13-263.32,1.16-10.18.24-15.78-2.74-16.64a2.82,2.82,0,0,0-.83-.12C479.39,200.18,470,210.67,457.59,230Zm26.62-25.62a2.84,2.84,0,0,1,.84.12c2.88.88,3.59,6.58,2.09,16.92-6.32,43.81-50.51,159.56-98.5,258C354,550.61,325.69,595.6,315.79,595.6a2.84,2.84,0,0,1-.84-.12c-2.88-.88-3.59-6.58-2.09-16.92,6.32-43.81,50.51-159.56,98.5-258C446,249.39,474.31,204.4,484.21,204.4Z"/><path d="M484.93,191.33c-5.63-1.38-16.49,9.88-30.58,31.71-14.65,22.71-32.15,55.63-50.61,95.19l0,0c-49.43,105.94-91.25,228.8-93.24,273.9-.45,10.09,1.1,15.64,4.59,16.49,5.63,1.4,16.49-9.88,30.58-31.71,14.65-22.71,32.15-55.63,50.61-95.19l0,0c49.43-105.94,91.25-228.8,93.24-273.9C490,197.73,488.42,192.18,484.93,191.33Zm4.08,21.1c-3.59,44.74-46.4,165.3-95.42,268.75-18.22,38.46-35.34,70.43-49.49,92.45-13.05,20.29-22.79,30.92-28.31,30.92a3.58,3.58,0,0,1-1-.13c-3.36-.89-4.64-6.57-3.81-16.85,3.59-44.74,46.4-165.3,95.42-268.75,18.22-38.46,35.34-70.43,49.49-92.45,13.86-21.56,24-32.21,29.3-30.8C488.56,196.47,489.84,202.15,489,212.43Z"/><path d="M483.89,182.29c-14.42-2.81-49.35,51.41-87,134.89-50.07,111.11-89.35,238.66-87.58,284.34.39,9.94,2.66,15.39,6.77,16.19a5.73,5.73,0,0,0,1.11.1c15,0,49.17-53.57,85.86-135,50.07-111.11,89.35-238.66,87.58-284.34C490.27,188.54,488,183.09,483.89,182.29ZM399.76,482.47c-18.68,40.71-36.58,74.61-51.76,98.06-14.06,21.69-24.89,33.05-31.47,33.05a5.13,5.13,0,0,1-1.12-.12c-3.93-.86-5.9-6.46-5.86-16.64.21-45.46,40.89-170.75,90.69-279.29,18.68-40.71,36.58-74.61,51.76-98.06,14.88-23,26.14-34.36,32.59-32.93,3.93.86,5.9,6.46,5.86,16.64C490.24,248.64,449.56,373.93,399.76,482.47Z"/><path d="M484.53,186.82a4.39,4.39,0,0,0-1-.11c-6.41,0-17.43,11.58-31.25,32.92-15.18,23.43-33.08,57.32-51.75,98-49.78,108.51-90.45,233.75-90.66,279.18,0,10,1.85,15.52,5.63,16.35,6.23,1.37,17.69-10.28,32.28-32.81,15.18-23.43,33.08-57.32,51.75-98C449.28,373.84,490,248.6,490.16,203.17,490.2,193.16,488.31,187.65,484.53,186.82Zm5.26,21c-2,45.13-43.84,168.07-93.28,274l0,0c-18.46,39.56-36,72.47-50.61,95.18-13.53,21-23.79,32-29.82,32a4.59,4.59,0,0,1-1.06-.12c-3.63-.9-5.25-6.54-4.79-16.77,2-45.13,43.84-168.07,93.28-274l0,0c18.46-39.56,36-72.47,50.61-95.18,14.36-22.26,25.05-33.26,30.88-31.84C488.63,192,490.25,197.6,489.79,207.83Z"/><path d="M327.3,204.07c-23.29,37.25-42.21,84.11-54.72,135.51-36.52,150.11-9,299.33,61.27,332.63h0c20.1,9.51,41.69,8.9,64.18-1.82,26.2-12.49,52-38.24,74.67-74.46,23.29-37.25,42.21-84.11,54.72-135.51,36.52-150.11,9-299.33-61.27-332.63a67.73,67.73,0,0,0-29.27-6.71q-17,0-34.91,8.53C375.77,142.1,350,167.85,327.3,204.07Zm88.56-74.68c19.69-8.25,38.26-7.53,55.2,2.14,30.37,17.34,51.51,61.57,59.54,124.54s2,137-16.94,208.72C499.94,516.71,480.34,563.5,457,600.11c-22.76,35.68-48,60.07-72.86,70.5a68.07,68.07,0,0,1-26.41,5.69,57.33,57.33,0,0,1-28.79-7.83c-30.37-17.34-51.51-61.57-59.54-124.54s-2-137,16.94-208.72c13.72-51.92,33.32-98.71,56.66-135.32C365.76,164.21,391,139.82,415.86,129.39Z"/><path d="M422.48,106.54q-8.5-.72-17-.71c-51.31,0-102,19.35-144.41,55.45-60.24,51.29-98.63,130.82-105.33,218.2-6,78.4,13.77,154.24,55.67,213.55s100.89,95,166.13,100.43q8.5.72,17,.71c51.31,0,102-19.35,144.41-55.45,60.24-51.29,98.63-130.82,105.33-218.2,6-78.4-13.77-154.24-55.67-213.55S487.72,112,422.48,106.54ZM621.39,429.33c-5.1,46.28-18,89.47-38.27,128.38-19.35,37.11-45.18,68.95-74.68,92.06C472.08,678.26,431.78,693,390.69,693a173.67,173.67,0,0,1-22.83-1.51C308.7,683.62,256.44,645.92,220.7,585.3S170,448.5,178.61,370.67c5.1-46.28,18-89.47,38.27-128.38,19.35-37.11,45.18-68.95,74.68-92.06,43.08-33.75,91.69-48.17,140.58-41.69,59.16,7.84,111.42,45.54,147.16,106.16S630,351.5,621.39,429.33Z"/><path d="M432,109.39c-48.66-6.45-97,7.91-139.94,41.51-29.41,23-55.15,54.78-74.46,91.79-20.24,38.81-33.08,81.9-38.17,128.07-8.56,77.65,6.34,153.69,42,214.11S309.08,682.81,368,690.61c48.66,6.45,97-7.9,139.94-41.51,29.41-23,55.15-54.78,74.46-91.79,20.24-38.81,33.08-81.9,38.17-128.07,8.56-77.65-6.34-153.69-42-214.11S490.92,117.19,432,109.39ZM599.49,437.15c-13.3,94.22-57.77,176.72-118.95,220.7-30.18,21.69-62.62,32.81-95.09,32.81a142.6,142.6,0,0,1-26.16-2.42C306,678.3,260.11,639,230.12,577.48s-40.48-137.66-29.61-214.63c13.3-94.22,57.77-176.72,119-220.7,38.3-27.52,80.23-38,121.25-30.39C494,121.7,539.89,161,569.88,222.52S610.36,360.18,599.49,437.15Z"/><path d="M440.57,112.56c-40.81-7.6-82.52,2.86-120.64,30.25C258.93,186.66,214.58,269,201.31,363c-10.84,76.8-.35,152.86,29.54,214.16s75.54,100.42,128.58,110.31l-.07.4.08-.4c40.8,7.6,82.51-2.86,120.63-30.25C541.07,613.34,585.42,531,598.69,437c10.84-76.8.35-152.86-29.54-214.16S493.61,122.45,440.57,112.56ZM579.33,444.11c-16.57,97.66-62.78,179.78-123.59,219.68-24.6,16.14-50.4,24.36-75.87,24.37a117.52,117.52,0,0,1-28.23-3.44C303.72,672.93,263.71,632.21,239,570.06s-31.21-138.15-18.3-214.17c16.57-97.66,62.78-179.78,123.59-219.68C378,114.06,414,106.82,448.36,115.28c47.92,11.79,87.93,52.51,112.67,114.66S592.24,368.09,579.33,444.11Z"/><path d="M411.84,104.06c-3.37-.13-6.75-.2-10.1-.2-68.45,0-133.55,27.9-184.3,79.23-53.25,53.85-84.32,127-87.48,206.11s22,154.5,70.73,212.44S316,693.05,388.16,695.94l0,.47,0-.47c72.12,2.88,141.16-25.18,194.4-79s84.32-127,87.48-206.11-22-154.5-70.73-212.44S484,107,411.84,104.06ZM645.18,420.59C638.46,508.21,600,588,539.53,639.4c-42.56,36.24-93.47,55.67-145,55.67q-8.55,0-17.1-.71c-65.5-5.5-124.73-41.3-166.78-100.81S148.8,458,154.82,379.41C161.54,291.79,200,212,260.47,160.6c47.27-40.25,104.84-59.77,162.09-55,65.5,5.5,124.73,41.3,166.78,100.81S651.2,342,645.18,420.59Z"/><path d="M448.17,116a117.37,117.37,0,0,0-28-3.4c-25.33,0-51,8.18-75.45,24.23C284,176.64,238,258.57,221.43,356c-26.58,156.59,31.91,303.71,130.4,328,34.13,8.4,69.92,1.19,103.49-20.83C516,623.36,562,541.43,578.57,444,605.15,287.39,546.66,140.27,448.17,116ZM560.79,450.3C551,500.13,533.85,546.72,511.16,585c-22,37.19-48.75,65.82-77.27,82.79-19.68,11.71-39.9,17.64-59.7,17.64A97.79,97.79,0,0,1,344.86,681c-43-13.45-77.62-55.34-97.56-117.94s-22.8-138.3-8.09-213.32C249,299.87,266.15,253.28,288.84,215c22-37.19,48.75-65.82,77.27-82.79,29.55-17.59,60.34-22.13,89-13.15,43,13.45,77.62,55.34,97.56,117.94S575.5,375.28,560.79,450.3Z"/><path d="M0,0V800H800V0ZM611.42,611.42A299,299,0,1,1,188.58,188.58,299,299,0,1,1,611.42,611.42Z"/><path d="M400,102a298,298,0,1,0,210.72,87.28A296.08,296.08,0,0,0,400,102ZM671,410.84c-3.17,79.29-34.34,152.72-87.75,206.74-50.93,51.51-116.27,79.51-185,79.51q-5.07,0-10.15-.2C315.73,694,248.91,660.38,200,602.25s-74.13-133.8-71-213.09,34.34-152.72,87.75-206.74,122.74-82.2,195.12-79.31S551.09,139.62,600,197.75,674.16,331.55,671,410.84Z"/><path d="M345.74,660.42c18.41-3.68,39.47-22.66,60.89-54.9,21.95-33,42.67-77.67,59.93-129.12,46.18-137.66,53.83-283.92,17.05-326-6.64-7.6-14.36-11.43-23-11.43a32.37,32.37,0,0,0-6.32.65c-18.41,3.68-39.47,22.66-60.89,54.9-21.95,33-42.67,77.67-59.93,129.12-46.18,137.66-53.83,283.92-17.05,326C324.6,659,334.48,662.67,345.74,660.42Zm-31.81-15.26c-31.74-43.27-19-188.44,28.34-323.61,17.85-50.91,38.59-94.79,60-126.89,21-31.43,41-49.38,58-51.91,10.13-1.51,18.82,2.56,25.82,12.09,31.74,43.27,19,188.44-28.34,323.61-17.85,50.91-38.59,94.79-60,126.89-21,31.43-41,49.38-58,51.91a26.76,26.76,0,0,1-4,.31C327.29,657.56,320,653.4,313.93,645.16Z"/><path d="M321.81,659c11.71,9.5,25.1,12,39.8,7.53,21.65-6.63,44.87-28.12,67.17-62.14,22.86-34.89,43.26-80.85,59-132.92,43.18-142.82,38.87-291-9.6-330.41-8-6.46-16.69-9.7-26.08-9.7a46.55,46.55,0,0,0-13.72,2.17c-21.65,6.63-44.87,28.12-67.17,62.14-22.86,34.89-43.26,80.85-59,132.92C269,471.38,273.34,619.6,321.81,659Zm-34-131.47c.83-62.11,13.25-133.78,35-201.79,16.58-51.9,37.23-97.31,59.7-131.32,22-33.26,44.25-53.53,64.41-58.61,13-3.29,24.67-.09,34.61,9.49,20.61,19.88,31.51,65.06,30.69,127.23s-13.25,133.78-35,201.79c-16.58,51.9-37.23,97.31-59.7,131.32-22,33.26-44.25,53.53-64.41,58.61a39.07,39.07,0,0,1-9.65,1.26c-9.18,0-17.54-3.6-25-10.75C297.89,634.85,287,589.67,287.81,527.5Z"/><path d="M325.26,663.5h0c14,9.56,29.67,11.3,46.57,5.17,48.17-17.45,98.43-96.1,128.05-200.38,41.27-145.32,30-294.16-25.14-331.79a47.78,47.78,0,0,0-27.39-8.75,56.12,56.12,0,0,0-19.18,3.58c-48.17,17.45-98.43,96.1-128,200.38C258.85,477,270.12,625.87,325.26,663.5ZM311.67,328.4c15.76-52.12,36.19-98.13,59.08-133.07,22.37-34.13,45.7-55.7,67.48-62.37,14.89-4.57,28.45-2,40.31,7.63,23.59,19.16,37.59,64.16,39.42,126.7s-8.69,135-29.63,204.31c-15.76,52.12-36.19,98.13-59.08,133.07-22.37,34.13-45.7,55.7-67.48,62.37a47,47,0,0,1-13.89,2.2c-9.52,0-18.36-3.29-26.42-9.83-23.59-19.16-37.59-64.16-39.42-126.7S290.73,397.66,311.67,328.4Z"/><path d="M353,663.71c20-5.06,42.18-25.25,64.09-58.39,22.45-34,43.07-79.34,59.64-131.19,44.8-140.26,46.79-287.61,4.42-328.47-7.31-7-15.56-10.6-24.61-10.6a38.84,38.84,0,0,0-9.5,1.23c-20,5.06-42.18,25.25-64.09,58.39-22.45,34-43.07,79.34-59.64,131.19-44.8,140.26-46.79,287.61-4.42,328.47C328.67,663.79,340.15,666.94,353,663.71ZM316,650c-36.88-42.23-29.27-188.72,17-326.53,17.27-51.49,38-96.18,60-129.24,21.5-32.36,42.66-51.42,61.21-55.12,11.46-2.29,21.49,1.4,29.84,10.95,36.88,42.23,29.27,188.72-17,326.53-17.27,51.49-38,96.18-60,129.24-21.5,32.36-42.66,51.42-61.21,55.12a32.73,32.73,0,0,1-6.43.66C330.6,661.58,322.75,657.69,316,650Z"/><path d="M385.5,130.48C328.59,161,279.33,242.92,257,344.38c-33.62,152.39,3.24,301.3,82.15,332,23.77,9.23,49.84,6.87,75.4-6.81C471.41,639,520.67,557.08,543.05,455.62c33.62-152.39-3.24-301.3-82.15-331.95C437.13,114.44,411.06,116.8,385.5,130.48Zm80.93-3.28C500.65,143.4,525.9,187,537.53,250s8.25,137.72-9.47,210.55C515.54,512,496.59,559,473.26,596.28c-22.72,36.33-48.63,62.16-74.94,74.71-12,5.72-23.78,8.59-35.2,8.59a68.34,68.34,0,0,1-29.55-6.78C299.35,656.6,274.1,613,262.47,550s-8.25-137.72,9.47-210.55c12.52-51.47,31.47-98.39,54.8-135.7,22.72-36.33,48.63-62.16,74.94-74.71C424.36,118.2,446.15,117.59,466.43,127.2Z"/><path d="M315.33,590.85c3.82,1.24,12.68-8.67,24.93-27.93,12.76-20,28.7-49.28,46.09-84.52,47.4-96,92-209.34,99.5-252.59,1.74-10.08,1.34-15.85-1.18-16.66-3.82-1.24-12.68,8.67-24.93,27.93-12.76,20-28.7,49.28-46.09,84.52-47.4,96-92,209.34-99.5,252.59C312.41,584.27,312.81,590,315.33,590.85Zm-.26-21c8.5-42.69,53.46-153.61,100.23-247.27,33.44-67,60-109.33,68.31-109.33a2.21,2.21,0,0,1,.69.1c2.47.85,2.68,6.53.63,16.88-8.5,42.69-53.46,153.61-100.23,247.27-33.44,67-60,109.33-68.31,109.33a2,2,0,0,1-.69-.11C313.23,585.84,313,580.16,315.07,569.81Z"/><path d="M329.25,667.92C346,677.49,364.4,678.2,383.89,670c24.79-10.39,49.89-34.69,72.58-70.27,23.31-36.56,42.88-83.29,56.59-135.14,39.06-147.76,20.08-296.94-42.31-332.55a56.67,56.67,0,0,0-28.49-7.75A67.64,67.64,0,0,0,416.11,130c-24.79,10.39-49.89,34.69-72.58,70.27-23.31,36.56-42.88,83.29-56.59,135.14C247.88,483.13,266.86,632.31,329.25,667.92ZM428,130.77c17.1-6.2,33-4.43,47.12,5.24,26.83,18.31,44.24,63,49,125.81S520.47,398,500.45,468.45C470.78,572.91,420.37,651.72,372,669.23a56.73,56.73,0,0,1-19.4,3.62A48.32,48.32,0,0,1,324.92,664c-26.83-18.31-44.24-63-49-125.81S279.53,402,299.55,331.55C329.22,227.09,379.63,148.28,428,130.77Z"/><path d="M483,177.77a6.86,6.86,0,0,0-1.12-.09C465.43,177.68,430,233,393,316.87,342.69,430.59,305,560.41,309,606.26c.85,9.86,3.55,15.23,8,16a6.86,6.86,0,0,0,1.12.09c16.44,0,51.85-55.29,88.92-139.19C457.31,369.41,495,239.59,491,193.74,490.15,183.88,487.45,178.51,483,177.77ZM403.36,482.94c-18.86,41.84-37.14,76.75-52.88,100.94-14.61,22.46-26.07,34.23-33.27,34.23a5.5,5.5,0,0,1-1.16-.11c-4.26-.83-6.62-6.37-7-16.47-1.78-45.72,37.52-173.33,87.6-284.47,18.86-41.84,37.14-76.75,52.88-100.94,15.42-23.7,27.32-35.51,34.43-34.12,4.26.83,6.62,6.37,7,16.47C492.74,244.19,453.44,371.8,403.36,482.94Z"/><path d="M326,537.92c-4.26,12.11-4.11,15.12-3.23,15.51s4.44-1.79,16.73-21.49c9.51-15.22,22.17-37.49,36.62-64.41h0c36.58-68.14,75.61-149.22,92.75-192.11-16.48,41-56.23,122.66-93.09,190.84-14.12,26.12-26.45,47.74-35.67,62.51-4.44,7.13-8.08,12.54-10.82,16.09-2.53,3.29-4.23,4.9-5.14,4.9a.76.76,0,0,1-.27,0c-1.26-.57-.1-5.79,3.46-15.52l.09-.23c-.51,1.37-1,2.68-1.42,3.92Z"/><path d="M321.68,557.35a.67.67,0,0,0,.26,0c1.36,0,5.37-3.28,17.17-22.16,9.81-15.69,22.81-38.65,37.6-66.39h0C415.16,396.71,455.88,310.62,472,268c-15.25,40.36-56.84,127.26-95.66,199.57h0c-14.46,26.93-27.12,49.21-36.63,64.44-4.59,7.34-8.36,12.92-11.2,16.57-2.64,3.37-4.41,5-5.4,5a.73.73,0,0,1-.3-.06c-1.36-.6-.29-5.89,3.17-15.73l0-.05c.35-1,.72-2,1.11-3.1-.91,2.47-1.73,4.79-2.45,6.92C320.46,553.88,320.73,556.94,321.68,557.35Z"/><path d="M474,262.08c4.26-12.11,4.11-15.12,3.23-15.51a.6.6,0,0,0-.24,0c-1.25,0-5,3.18-16.49,21.54-9.51,15.22-22.17,37.49-36.62,64.41h0c-36.58,68.14-75.61,149.22-92.75,192.11,16.48-41,56.23-122.66,93.09-190.84,14.12-26.12,26.45-47.74,35.67-62.51,4.44-7.13,8.08-12.54,10.82-16.09s4.58-5.22,5.41-4.85c1.26.57.1,5.79-3.46,15.52l-.09.23c.51-1.37,1-2.68,1.42-3.92Z"/><path d="M476,250.42a.54.54,0,0,0-.2,0c-1.15,0-4.73,3.08-15.86,20.93-9.21,14.77-21.54,36.38-35.67,62.51-35.64,65.92-74,144.47-91.38,186.64C349.65,480.12,388.65,401,424.54,335.1l0,0c27.33-50.23,46.37-81,50.08-81a.59.59,0,0,1,.23,0c1.14.52,0,5.44-3.47,14.59.38-1,.75-2,1.09-2.92C476.89,253.75,476.84,250.79,476,250.42Z"/><path d="M320.61,561.34a.78.78,0,0,0,.31.06c2.31,0,8.6-8,17.86-22.81,10.13-16.18,23.48-39.85,38.6-68.44,42.4-80.16,87-176.84,99.44-215.55h0c4-12.38,3.59-15.5,2.56-15.93-2-.84-8.46,7.24-18.17,22.75-10.13,16.18-23.48,39.85-38.6,68.44-42.4,80.16-87,176.84-99.44,215.55h0C319.19,557.79,319.58,560.91,320.61,561.34Zm3.85-19.79c12.81-38,57.08-132.38,98.69-210.44v0C438,303.34,451,280.38,460.77,264.68c6.42-10.27,14.5-22.23,17.29-22.23a.87.87,0,0,1,.32.06c1.46.64.51,6-2.84,15.94-12.81,38-57.08,132.38-98.69,210.44v0c-14.79,27.75-27.79,50.71-37.61,66.41-6.42,10.27-14.5,22.23-17.29,22.23a.87.87,0,0,1-.32-.06C320.16,556.85,321.11,551.49,324.46,541.55Z"/><path d="M324,549.58a.54.54,0,0,0,.2,0c1.15,0,4.73-3.08,15.86-20.93,9.21-14.77,21.54-36.38,35.67-62.51,35.64-65.92,74-144.47,91.38-186.64C450.35,319.88,411.35,399,375.46,464.9l0,0c-27.33,50.23-46.37,81-50.08,81a.59.59,0,0,1-.23-.05c-1.14-.52,0-5.44,3.47-14.59-.38,1-.75,2-1.09,2.92C323.11,546.25,323.16,549.21,324,549.58Z"/><path d="M327.32,534c.09-.24.19-.49.28-.74C327.51,533.46,327.41,533.71,327.32,534Z"/><path d="M472.4,266.79c.09-.25.19-.5.28-.74C472.59,266.29,472.49,266.54,472.4,266.79Z"/><path d="M471,265.16c-.63-.31-3.25,1.72-13.75,18.63-8.13,13.08-19.2,32.24-32,55.39h0C394,395.53,359.64,462.6,341.46,502.11,359.13,464,393.9,396.69,425.18,340.49v0c12.51-22.46,23.28-41.05,31.16-53.75,7.49-12.07,11.94-18.18,13.23-18.18a.33.33,0,0,1,.15,0c.74.37-.26,4-3,10.68C471.33,268.14,471.6,265.44,471,265.16Z"/><path d="M329,534.84c.63.31,3.25-1.72,13.75-18.63,8.13-13.08,19.2-32.24,32-55.39h0c31.2-56.34,65.59-123.41,83.77-162.92C440.87,336,406.1,403.31,374.82,459.51v0c-12.51,22.46-23.28,41.05-31.16,53.75-7.49,12.07-11.94,18.18-13.23,18.18a.33.33,0,0,1-.15,0c-.74-.37.26-4,3-10.68C328.67,531.86,328.4,534.56,329,534.84Z"/><path d="M327.71,538.42c.68.33,3.44-1.73,14.28-19.17,8.38-13.49,19.76-33.23,32.9-57.1,32.28-58.61,67.69-128.43,85.78-168.68-17.55,38.77-53.39,108.87-85.79,167.38h0C349.44,506.79,332,535,329.11,535a.33.33,0,0,1-.15,0c-.83-.4.19-4.2,3-11.33a.58.58,0,0,1-.05.14C327.26,535.32,327.05,538.11,327.71,538.42Z"/><path d="M319.6,565.39c2.19.89,8.92-7.42,19-23.42,10.46-16.68,24.16-41.07,39.62-70.54v0c43.18-82.3,88.06-181.3,100-220.7,3.8-12.48,3.28-15.64,2.17-16.1-2.2-.89-8.92,7.42-19,23.42-10.46,16.68-24.16,41.07-39.62,70.54v0c-43.18,82.3-88.06,181.3-100,220.7C318,561.77,318.49,564.93,319.6,565.39Zm3.42-20h0c12.43-38.7,57-135.41,99.45-215.58,15.12-28.59,28.48-52.26,38.61-68.45,6.62-10.57,15-22.88,18-22.88a.86.86,0,0,1,.36.07c1.58.66.75,6.08-2.47,16.11h0c-12.43,38.7-57,135.41-99.45,215.58-15.12,28.59-28.48,52.26-38.61,68.45-6.62,10.57-15,22.88-18,22.88a.86.86,0,0,1-.36-.07C319,560.82,319.8,555.4,323,545.37Z"/><path d="M469.68,268.66c-.58-.28-3.06,1.71-13.24,18.11-7.88,12.7-18.65,31.28-31.15,53.74h0c-30.14,54.16-63.53,118.61-81.73,157.36C361.27,460.42,395,395.8,425.19,341.81c12.2-21.8,22.68-39.84,30.32-52.16,7.27-11.73,11.56-17.66,12.76-17.66l.13,0c.68.34-.25,3.58-2.83,9.84C468.08,275.87,470.64,269.13,469.68,268.66Z"/><path d="M474.81,254.21a.48.48,0,0,0-.18,0c-1.05,0-4.45,3-15.26,20.34-8.92,14.33-20.93,35.3-34.72,60.65l0,0c-34.37,63.17-71.6,138.37-89.38,180,17.19-40,55-115.64,89.56-178.77v0c26.7-48.76,45.18-78.66,48.61-78.66a.45.45,0,0,1,.2,0c1,.48-.07,4.9-3.22,13.16l.62-1.63h0C475.53,257.47,475.57,254.56,474.81,254.21Z"/><path d="M473.57,257.93a.41.41,0,0,0-.16,0c-1,0-4.19,2.88-14.69,19.76-8.65,13.9-20.33,34.24-33.8,58.83h0c-33.18,60.6-69.35,132.73-87.4,173.8,17.5-39.53,54.16-112,87.49-172.51,26.06-47.32,44-76.35,47.16-76.35a.33.33,0,0,1,.17,0c.91.43-.13,4.51-3.09,12.13l.3-.78C474.14,261.11,474.27,258.26,473.57,257.93Z"/><path d="M326.43,542.07c.75.35,3.67-1.76,14.85-19.73,8.65-13.9,20.33-34.24,33.8-58.83h0c33.18-60.6,69.35-132.73,87.4-173.8-17.5,39.53-54.16,112-87.49,172.51-26.06,47.32-44,76.35-47.16,76.35a.33.33,0,0,1-.17,0c-.91-.43.13-4.51,3.09-12.13l-.3.78C325.86,538.89,325.73,541.74,326.43,542.07Z"/><path d="M472.29,261.58a.29.29,0,0,0-.14,0c-.89,0-3.94,2.79-14.14,19.2-8.38,13.49-19.76,33.23-32.9,57.1-32.28,58.61-67.69,128.43-85.78,168.68,17.55-38.77,53.39-108.87,85.79-167.38h0C450.56,293.21,468,265,470.89,265a.33.33,0,0,1,.15,0c.83.4-.19,4.2-3,11.33a.58.58,0,0,1,.05-.14C472.74,264.68,473,261.89,472.29,261.58Z"/><path d="M329,530.66c-4.51,11.87-4.55,14.78-3.79,15.13s3.9-1.76,15.44-20.3c8.92-14.33,20.93-35.3,34.72-60.65l0,0c34.37-63.17,71.6-138.37,89.38-180-17.19,40-55,115.64-89.56,178.77v0c-26.7,48.76-45.18,78.66-48.61,78.66a.45.45,0,0,1-.2,0c-1-.48.07-4.9,3.22-13.16l-.62,1.63Z"/><path d="M317,577.89c2.89,1.07,10.57-8,21.65-25.55,11.53-18.28,26.33-45,42.77-77.2v0c45.41-89,90.64-195.09,100.81-236.52,3.12-12.69,2.12-16,.72-16.49a1.59,1.59,0,0,0-.5-.08c-3.21,0-10.66,9-21.15,25.63-11.53,18.28-26.33,45-42.77,77.2v0c-45.41,89-90.64,195.09-100.81,236.52C314.62,574.09,315.62,577.37,317,577.89Zm1.85-20.65C329.74,516.45,374.94,412.73,419.63,326v0c31.52-61.15,55.65-99.91,62.14-99.91a1.3,1.3,0,0,1,.49.09c2,.76,1.59,6.34-1.14,16.59C470.26,283.55,425.06,387.27,380.37,474v0c-31.51,61.15-55.65,99.91-62.14,99.91a1.3,1.3,0,0,1-.49-.09C315.75,573.07,316.14,567.49,318.87,557.24Z"/><path d="M315.77,586.49c3.48,1.2,11.92-8.44,23.76-27.11,12.34-19.44,27.89-47.8,45-82,46.77-93.65,91.72-204.55,100.21-247.22,2-10.09,1.83-15.84-.49-16.64-3.48-1.19-11.92,8.44-23.76,27.11-12.34,19.44-27.89,47.8-45,82-46.77,93.65-91.72,204.55-100.21,247.22C313.28,579.94,313.45,585.69,315.77,586.49Zm.52-20.94c9.39-42.08,54.54-150.6,100.65-241.91l0-.05c33.74-66.81,59.94-108.39,66.76-105.94,2.29.82,2.29,6.47,0,16.8-9.39,42.08-54.54,150.6-100.65,241.91l0,.05c-32.79,64.94-58.47,106-66.14,106a1.79,1.79,0,0,1-.62-.1C314,581.53,314,575.88,316.29,565.55Z"/><path d="M317.79,573.66a1.12,1.12,0,0,0,.45.08c2.95,0,10.09-8.75,20.25-24.89,11.16-17.72,25.58-43.63,41.7-74.91v0C424.89,387.21,470.09,283.49,481,242.71c3.37-12.63,2.54-15.88,1.25-16.37-2.64-1-10,7.79-20.7,24.81-11.16,17.72-25.58,43.63-41.7,74.91v0C375.11,412.79,329.91,516.51,319,557.29,315.67,569.92,316.5,573.17,317.79,573.66Zm2.43-20.44v0c11.48-40.1,56.56-141.46,100.5-226v0c15.8-30.37,29.86-55.52,40.67-72.72,7.37-11.72,16.83-25.43,20-24.17,1.83.73,1.28,6.27-1.63,16.44v0c-11.48,40.1-56.56,141.46-100.5,226v0c-15.8,30.37-29.86,55.52-40.67,72.72-7.05,11.21-16,24.25-19.56,24.25a1.33,1.33,0,0,1-.45-.08C316.76,568.93,317.31,563.4,320.22,553.22Z"/><path d="M316.34,582.16c3.18,1.13,11.22-8.21,22.67-26.31,11.93-18.85,27.1-46.37,43.87-79.58l0-.06c46.1-91.28,91.22-199.74,100.61-241.8,2.84-12.72,1.64-16,.14-16.57a1.69,1.69,0,0,0-.56-.09c-3.49,0-11.28,9.28-22.11,26.4-11.93,18.85-27.1,46.37-43.87,79.58l0,.06c-46.1,91.28-91.22,199.74-100.61,241.8C313.64,578.31,314.84,581.62,316.34,582.16Zm1.21-20.8C327.73,519.91,373,413.81,418.37,324.82v0c32.16-63,57.06-103,64.12-103a1.63,1.63,0,0,1,.55.09c2.13.8,1.93,6.42-.6,16.71C472.27,280.09,427,386.19,381.63,475.18v0c-32.16,63-57.06,103-64.12,103a1.63,1.63,0,0,1-.55-.09C314.82,577.27,315,571.65,317.55,561.36Z"/><path d="M338.46,545.4c10.8-17.2,24.86-42.33,40.65-72.69v0c43.93-84.47,89-185.82,100.49-225.93h0c3.6-12.57,2.93-15.77,1.73-16.25-2.39-.95-9.43,7.6-19.8,24.1-10.8,17.2-24.86,42.33-40.65,72.69v0c-43.93,84.47-89,185.82-100.49,225.93h0c-3.6,12.57-2.93,15.77-1.73,16.25C321.07,570.45,328.09,561.9,338.46,545.4Zm-16.85,3.84c12-39.41,56.88-138.44,100.06-220.75l0,0c15.45-29.46,29.15-53.85,39.61-70.53,6.84-10.89,15.48-23.55,18.76-23.55a1,1,0,0,1,.4.07c1.71.7,1,6.18-2.07,16.3-12,39.41-56.88,138.44-100.06,220.75l0,0c-15.45,29.46-29.15,53.85-39.61,70.53-6.84,10.89-15.48,23.55-18.76,23.55a1,1,0,0,1-.4-.07C317.83,564.84,318.53,559.36,321.61,549.24Z"/></g></g></svg>